<svg xmlns="http://www.w3.org/2000/svg" width="19.473" height="23.741" viewBox="0 0 19.473 23.741">
  <path id="Path_5020" data-name="Path 5020" d="M409.789,423.827v-1.6a7.572,7.572,0,0,0-5.331-7.254v-.209a2.274,2.274,0,0,0-4.549,0v.209a7.571,7.571,0,0,0-5.331,7.254v1.6c0,3.507-.822,4.732-1.413,5.616a3.183,3.183,0,0,0-.719,1.847c0,1.462,2.219,2.368,6.6,2.693a3.324,3.324,0,0,0,3.136,2.248,3.327,3.327,0,0,0,3.145-2.248c4.377-.324,6.6-1.23,6.6-2.7a3.16,3.16,0,0,0-.711-1.828C410.61,428.558,409.789,427.332,409.789,423.827Zm.311,6.395a1.886,1.886,0,0,1,.471,1.068c0,.495-2.96,1.457-8.387,1.457s-8.387-.962-8.387-1.443a1.929,1.929,0,0,1,.486-1.1c.656-.981,1.647-2.463,1.647-6.375v-1.6a6.255,6.255,0,1,1,12.509,0v1.6C408.439,427.741,409.431,429.223,410.1,430.221Zm-8.836-15.536a.924.924,0,0,1,1.841,0,6.8,6.8,0,0,0-1.841,0Zm2.515,19.382a1.969,1.969,0,0,1-1.594.812h0a1.966,1.966,0,0,1-1.594-.812c.677.024,1.233.03,1.6.03S403.111,434.091,403.779,434.067Z" transform="translate(-392.447 -412.49)" fill="#282828"/>
</svg>
