<svg xmlns="http://www.w3.org/2000/svg" width="60" height="60" viewBox="0 0 60 60">
  <g id="Group_13044" data-name="Group 13044" transform="translate(-45 -430)">
    <rect id="Rectangle_996" data-name="Rectangle 996" width="60" height="60" transform="translate(45 430)" fill="#fff" opacity="0"/>
    <g id="shopping-cart" transform="translate(-952.509 257.193)">
      <path id="Path_5255" data-name="Path 5255" d="M1041.982,229.18a4.674,4.674,0,1,0,1.76-9.018h-31.606a2.018,2.018,0,1,1,0-4.036h0c8.616,0,14.84.005,19.341.008,10.593.008,11.706.009,11.861-.072l.073-.035a1.311,1.311,0,0,0,.69-.667l.041-.067c0-.029.3-.969,2.258-7.085l4.411-13.786a1.311,1.311,0,0,0-1.248-1.707h-6.224l.018-.268a14.623,14.623,0,0,0-29.175-2.033,14.689,14.689,0,0,0,0,2.034l.018.267h-4.448l-1.364-4.1a1.309,1.309,0,0,0-1.243-.9h-3.328a1.31,1.31,0,0,0,0,2.619h2.381l.584,1.75c.754,2.252.754,2.252,3.37,10.442l3.508,10.973h-1.524a4.637,4.637,0,1,0,0,9.273h2.47l-.139.344a4.663,4.663,0,1,0,8.645,0l-.139-.344h16.585l-.14.344A4.655,4.655,0,0,0,1041.982,229.18Zm1.759-6.4a2.021,2.021,0,0,1,2.018,2.018,2.106,2.106,0,0,1-2.005,2.12h-.025a2.106,2.106,0,0,1-2.005-2.122A2.02,2.02,0,0,1,1043.741,222.779Zm-14.973-43.353h.054a12.05,12.05,0,0,1,.052,24.1h-.053a12.05,12.05,0,0,1-.053-24.1ZM1010.6,195.333h4.05l.051.181a14.62,14.62,0,0,0,28.13,0l.051-.181h4.884l-5.815,18.174h-25.535Zm8.295,31.575q-.054,0-.108,0a2.026,2.026,0,0,1-2.018-1.912c0-.073,0-.144,0-.214a2.021,2.021,0,1,1,2.126,2.123Z" fill="#ef5713"/>
      <path id="Path_5256" data-name="Path 5256" d="M1028.768,199.92a1.311,1.311,0,0,0,1.309-1.309v-.5l.165-.06a4.365,4.365,0,0,0,2.887-4.1,3.855,3.855,0,0,0-2.707-3.709,10.909,10.909,0,0,1-2.734-1.261l-.081-.083a.865.865,0,0,1-.086-.678,1.1,1.1,0,0,1,.7-.849,1.814,1.814,0,0,1,1.846.206,1.344,1.344,0,0,0,.951.415h.011a1.31,1.31,0,0,0,.933-2.228,3.883,3.883,0,0,0-1.7-.975l-.185-.05v-.277a1.31,1.31,0,1,0-2.619,0v.4l-.165.06a3.732,3.732,0,0,0-2.373,2.943,3.276,3.276,0,0,0,1.127,3.163,12.618,12.618,0,0,0,3.482,1.678,1.291,1.291,0,0,1,.952,1.539,1.734,1.734,0,0,1-1.709,1.453h-.019a3,3,0,0,1-2.194-.58,1.283,1.283,0,0,0-.7-.2,1.339,1.339,0,0,0-.273.028,1.309,1.309,0,0,0-.448,2.377,5.36,5.36,0,0,0,2.11.9l.2.039v.357A1.311,1.311,0,0,0,1028.768,199.92Z" fill="#ef5713"/>
    </g>
  </g>
</svg>
