<svg xmlns="http://www.w3.org/2000/svg" width="22.959" height="22.649" viewBox="0 0 22.959 22.649">
  <g id="emails-contacts-book" transform="translate(0 -4.048)">
    <g id="Group_13154" data-name="Group 13154" transform="translate(0 4.048)">
      <g id="Group_13152" data-name="Group 13152">
        <path id="Path_5119" data-name="Path 5119" d="M1.319,21.475a.819.819,0,0,0,0,1.639H2.492v1.821a2.227,2.227,0,0,0,2.224,2.224H21.2a2.227,2.227,0,0,0,2.224-2.224V6.772A2.227,2.227,0,0,0,21.2,4.548H4.716A2.227,2.227,0,0,0,2.492,6.772V8.593H1.319a.819.819,0,1,0,0,1.639H2.492v4.8H1.319a.819.819,0,0,0,0,1.639H2.492v4.8Zm20.462-14.7V24.934a.585.585,0,0,1-.585.585H8.415V6.187H21.2A.585.585,0,0,1,21.781,6.772Zm-17.651,9.9h.935a.819.819,0,0,0,0-1.639H4.131v-4.8h.935a.819.819,0,1,0,0-1.639H4.131V6.772a.585.585,0,0,1,.585-.585h2.06V25.52H4.716a.585.585,0,0,1-.585-.585V23.113h.935a.819.819,0,1,0,0-1.639H4.131v-4.8Z" transform="translate(-0.481 -4.529)" fill="#ef5713"/>
        <path id="Path_5120" data-name="Path 5120" d="M20.715,26.7H4.235a2.246,2.246,0,0,1-2.243-2.243v-1.8H.839a.839.839,0,0,1,0-1.677H1.992V16.211H.839a.839.839,0,0,1,0-1.677H1.992V9.77H.839a.839.839,0,1,1,0-1.677H1.992v-1.8A2.246,2.246,0,0,1,4.235,4.048h16.48a2.246,2.246,0,0,1,2.243,2.243V24.454A2.246,2.246,0,0,1,20.715,26.7ZM.839,21.013a.8.8,0,0,0,0,1.6H2.03v1.84a2.208,2.208,0,0,0,2.205,2.205h16.48a2.208,2.208,0,0,0,2.205-2.205V6.291a2.208,2.208,0,0,0-2.205-2.205H4.235A2.208,2.208,0,0,0,2.03,6.291v1.84H.839a.8.8,0,1,0,0,1.6H2.03v4.84H.839a.8.8,0,0,0,0,1.6H2.03v4.84Zm19.877,4.045H7.915V5.687h12.8a.605.605,0,0,1,.6.6V24.454A.605.605,0,0,1,20.715,25.058ZM7.954,25.02H20.715a.567.567,0,0,0,.566-.566V6.291a.567.567,0,0,0-.566-.566H7.954Zm-1.639.038H4.235a.605.605,0,0,1-.6-.6v-1.84h.954a.8.8,0,1,0,0-1.6H3.631v-4.84h.954a.8.8,0,0,0,0-1.6H3.631V9.732h.954a.8.8,0,1,0,0-1.6H3.631V6.291a.605.605,0,0,1,.6-.6h2.08ZM3.669,22.652v1.8a.567.567,0,0,0,.566.566H6.276V5.725H4.235a.567.567,0,0,0-.566.566v1.8h.916a.839.839,0,1,1,0,1.677H3.669v4.763h.916a.839.839,0,1,1,0,1.677H3.669v4.763h.916a.839.839,0,0,1,0,1.677H3.669Z" transform="translate(0 -4.048)" fill="#ef5713"/>
      </g>
      <g id="Group_13153" data-name="Group 13153" transform="translate(9.299 6.108)">
        <path id="Path_5121" data-name="Path 5121" d="M247,174.279a.585.585,0,0,0,.771-.423l.1-.461a.586.586,0,0,0-.366-.675,3.58,3.58,0,0,1-1.518-1.106,3.556,3.556,0,0,1,2.779-5.782,3.563,3.563,0,0,1,3.559,3.559,3.6,3.6,0,0,1-.052.612.468.468,0,0,1-.559.376l-.539-.114a2.582,2.582,0,1,0-1.292,1.4l1.491.317a2.107,2.107,0,0,0,2.514-1.7,5.251,5.251,0,0,0,.076-.891,5.2,5.2,0,0,0-5.2-5.2h0a5.2,5.2,0,0,0-4.058,8.446A5.225,5.225,0,0,0,247,174.279Zm1.768-4a.942.942,0,1,1,.942-.942A.943.943,0,0,1,248.767,170.28Z" transform="translate(-243.55 -164.174)" fill="#ef5713"/>
        <path id="Path_5122" data-name="Path 5122" d="M246.717,173.851h0a.6.6,0,0,1-.206-.036,5.214,5.214,0,1,1,6.915-4.013,2.128,2.128,0,0,1-2.089,1.763,2.161,2.161,0,0,1-.448-.047L249.4,171.2a2.57,2.57,0,0,1-1.119.253,2.6,2.6,0,1,1,2.435-1.689l.517.11a.445.445,0,0,0,.346-.068.443.443,0,0,0,.19-.293,3.584,3.584,0,0,0,.052-.608,3.54,3.54,0,0,0-7.079-.049,3.5,3.5,0,0,0,.775,2.26,3.555,3.555,0,0,0,1.51,1.1.6.6,0,0,1,.378.7l-.1.461A.609.609,0,0,1,246.717,173.851Zm1.569-10.122a5.179,5.179,0,0,0-1.762,10.049.565.565,0,0,0,.746-.41l.1-.461a.564.564,0,0,0-.354-.653,3.594,3.594,0,0,1-1.526-1.111,3.575,3.575,0,0,1,2.794-5.813,3.582,3.582,0,0,1,3.578,3.578,3.622,3.622,0,0,1-.052.615.482.482,0,0,1-.206.318.484.484,0,0,1-.375.073l-.561-.119.008-.021a2.562,2.562,0,1,0-1.283,1.391l.006,0h.006l1.491.317a2.12,2.12,0,0,0,.44.047,2.09,2.09,0,0,0,2.051-1.731,5.231,5.231,0,0,0,.076-.888,5.179,5.179,0,0,0-5.179-5.179Zm0,6.088a.961.961,0,1,1,.961-.961A.962.962,0,0,1,248.286,169.817Zm0-1.884a.923.923,0,1,0,.923.923A.924.924,0,0,0,248.286,167.933Z" transform="translate(-243.069 -163.691)" fill="#ef5713"/>
      </g>
    </g>
  </g>
</svg>
