<svg xmlns="http://www.w3.org/2000/svg" width="30" height="30" viewBox="0 0 30 30">
  <g id="Group_13194" data-name="Group 13194" transform="translate(-44.786 -429.786)">
    <rect id="Rectangle_996" data-name="Rectangle 996" width="30" height="30" transform="translate(44.786 429.786)" fill="#fff" opacity="0"/>
    <g id="Group_13072" data-name="Group 13072" transform="translate(47.606 432.616)">
      <path id="Path_4994" data-name="Path 4994" d="M251.527,379.058h0a.893.893,0,0,0-.893.892v5.359a1.527,1.527,0,0,1-1.521,1.523H232.175a1.527,1.527,0,0,1-1.523-1.523V369.581a1.527,1.527,0,0,1,1.522-1.523h5.36a.893.893,0,1,0,0-1.785h-5.36a3.316,3.316,0,0,0-3.307,3.307v15.731a3.316,3.316,0,0,0,3.307,3.307h16.937a3.316,3.316,0,0,0,3.306-3.307v-5.359A.894.894,0,0,0,251.527,379.058Z" transform="translate(-228.867 -363.926)" fill="#ef5713"/>
      <path id="Path_4995" data-name="Path 4995" d="M257.57,363.8l-.708-.708a3.011,3.011,0,0,0-4.251,0L241.844,373.86a.888.888,0,0,0-.23.394l-1.416,5.113a.894.894,0,0,0,.621,1.1.881.881,0,0,0,.477,0l5.112-1.416a.894.894,0,0,0,.393-.229l10.769-10.77A3.008,3.008,0,0,0,257.57,363.8Zm-13.059,13.921-2.171.6.6-2.172Zm10.1-9.234-8.405,8.4-2.433-2.434,8.4-8.4Zm1.7-1.7-.436.436-2.434-2.435.436-.435a1.249,1.249,0,0,1,1.725,0l.709.708A1.225,1.225,0,0,1,256.308,366.788Z" transform="translate(-233.634 -362.214)" fill="#ef5713"/>
    </g>
  </g>
</svg>
