<svg xmlns="http://www.w3.org/2000/svg" width="30" height="30" viewBox="0 0 30 30">
  <g id="Group_13192" data-name="Group 13192" transform="translate(-45 -430)">
    <rect id="Rectangle_996" data-name="Rectangle 996" width="30" height="30" transform="translate(45 430)" fill="#fff" opacity="0"/>
    <g id="folder_1_" data-name="folder (1)" transform="translate(47.55 384.03)">
      <path id="Path_5219" data-name="Path 5219" d="M22.712,51.973H9.428A2.174,2.174,0,0,0,7.609,51H2.188A2.191,2.191,0,0,0,0,53.188V68.751A2.191,2.191,0,0,0,2.188,70.94H22.712A2.191,2.191,0,0,0,24.9,68.751V54.161A2.191,2.191,0,0,0,22.712,51.973Zm.729,16.778a.73.73,0,0,1-.729.729H2.188a.73.73,0,0,1-.729-.729V53.188a.73.73,0,0,1,.729-.729H7.609a.726.726,0,0,1,.653.4L9.8,55.946a.729.729,0,0,0,.652.4H23.441Zm0-13.86H10.907l-.729-1.459H22.712a.73.73,0,0,1,.729.729Z" fill="#ef5713"/>
      <path id="Path_5220" data-name="Path 5220" d="M60.729,252.459h3.4a.73.73,0,0,0,0-1.459h-3.4a.73.73,0,0,0,0,1.459Z" transform="translate(-57.082 -190.273)" fill="#ef5713"/>
      <path id="Path_5221" data-name="Path 5221" d="M60,311.729v2.918a.729.729,0,0,0,.729.729h7.781a.729.729,0,0,0,.729-.729v-2.918a.729.729,0,0,0-.729-.729H60.729A.729.729,0,0,0,60,311.729Zm1.459.729h6.322v1.459H61.459Z" transform="translate(-57.082 -247.355)" fill="#ef5713"/>
    </g>
  </g>
</svg>
