<svg xmlns="http://www.w3.org/2000/svg" width="30" height="30" viewBox="0 0 30 30">
  <g id="Group_13115" data-name="Group 13115" transform="translate(-45 -430)">
    <rect id="Rectangle_996" data-name="Rectangle 996" width="30" height="30" transform="translate(45 430)" fill="#fff" opacity="0"/>
    <g id="Group_13116" data-name="Group 13116" transform="translate(-737.103 131.891)">
      <path id="Path_5038" data-name="Path 5038" d="M803.9,333.427c-1.213.044-1.623.525-1.623,1.829q0,7.547,0,15.095a1.433,1.433,0,0,0,1.624,1.638q7.691,0,15.382,0a1.4,1.4,0,0,0,1.551-1.558q0-2.564,0-5.128,0-5.177,0-10.353a1.4,1.4,0,0,0-1.5-1.521l-.211,0Zm8.531,6.175c.87-.007,1.74,0,2.61,0s1.74,0,2.61,0a.787.787,0,1,1,0,1.562q-2.61.01-5.219,0a.793.793,0,0,1-.881-.807A.785.785,0,0,1,812.431,339.6Zm-2.809,6.925c-.68.685-1.36,1.37-2.048,2.048a.809.809,0,0,1-1.334-.01c-.459-.451-.915-.905-1.363-1.367a.788.788,0,1,1,1.1-1.118c.3.294.567.614.915,1,.6-.615,1.111-1.148,1.631-1.671.45-.452.911-.5,1.263-.141S810.079,346.068,809.622,346.528Zm.057-7.021q-1.052,1.066-2.119,2.118a.787.787,0,0,1-1.264.024q-.731-.7-1.438-1.433a.791.791,0,1,1,1.132-1.091c.3.293.571.607.91.97.608-.622,1.132-1.168,1.668-1.7a.8.8,0,1,1,1.111,1.115Zm7.914,8.627c-.854,0-1.707,0-2.561,0s-1.708,0-2.561,0c-.566,0-.912-.3-.921-.767-.009-.49.342-.8.939-.8q2.561,0,5.122,0c.567,0,.91.3.92.768C818.542,347.83,818.191,348.132,817.594,348.134Z" transform="translate(-14.576 -28.703)" fill="none"/>
      <path id="Union_1" data-name="Union 1" d="M2.931,23.217A2.909,2.909,0,0,1,.007,20.293q-.014-7.887,0-15.775a2.929,2.929,0,0,1,3-2.993c.27,0,.541,0,.835,0v0h.022c0-.172,0-.38,0-.64A.793.793,0,0,1,4.679,0a.785.785,0,0,1,.758.88c0,.214,0,.428,0,.642h4.628c0-.172,0-.38,0-.64a.788.788,0,1,1,1.565,0c0,.214,0,.428,0,.642h4.628c0-.172,0-.38,0-.64a.788.788,0,1,1,1.565,0c0,.214,0,.428,0,.642h.015v0c.324,0,.64,0,.957,0a2.914,2.914,0,0,1,2.887,2.864q.025,7.984,0,15.968a2.9,2.9,0,0,1-2.89,2.86q-4.01.009-8.019.009Q6.857,23.226,2.931,23.217ZM3.192,3.093c-1.213.045-1.623.525-1.623,1.829q0,7.547,0,15.095a1.433,1.433,0,0,0,1.624,1.638q7.691,0,15.382,0a1.4,1.4,0,0,0,1.552-1.558q0-2.564,0-5.128,0-5.177,0-10.354a1.4,1.4,0,0,0-1.5-1.521l-.212,0h-.589v.484c0-.167,0-.053,0,.061,0,.134,0,.269,0-.061,0,.046,0,.111,0,.2a.787.787,0,1,1-1.562,0c0-.286,0-.509,0-.69H11.635q0,.2,0,.4v.083c0-.166,0-.053,0,.061,0,.135,0,.27,0-.061,0,.046,0,.111,0,.2a.787.787,0,1,1-1.563,0c0-.286,0-.509,0-.69H5.439c0,.134,0,.267,0,.4v.083c0-.166,0-.053,0,.061,0,.135,0,.27,0-.061,0,.046,0,.111,0,.2a.787.787,0,1,1-1.562,0c0-.286,0-.509,0-.69h-.68ZM5.533,18.232c-.459-.451-.916-.905-1.363-1.367a.788.788,0,1,1,1.1-1.117c.3.293.567.614.915,1,.6-.616,1.111-1.148,1.631-1.671.45-.452.911-.5,1.263-.141s.3.8-.159,1.263c-.681.685-1.361,1.371-2.048,2.048a.973.973,0,0,1-.659.346A1,1,0,0,1,5.533,18.232Zm6.231-.432c-.566,0-.911-.3-.92-.767-.01-.49.342-.795.939-.8q2.562,0,5.123,0c.567,0,.909.3.919.768.01.491-.34.793-.938.8-.854,0-1.708,0-2.561,0H12.831Q12.3,17.8,11.763,17.8ZM5.589,11.315q-.731-.7-1.438-1.433A.791.791,0,1,1,5.283,8.791c.3.293.571.607.909.97.608-.622,1.133-1.167,1.668-1.7A.8.8,0,1,1,8.972,9.173q-1.052,1.066-2.119,2.118a.946.946,0,0,1-.646.33A.91.91,0,0,1,5.589,11.315Zm6.136-.481a.792.792,0,0,1-.881-.807.784.784,0,0,1,.88-.757c.87-.007,1.74,0,2.61,0s1.74,0,2.61,0a.787.787,0,1,1,0,1.562q-1.557.006-3.114.006Z" transform="translate(786.132 301.631)" fill="#ef5713"/>
    </g>
  </g>
</svg>
