<svg xmlns="http://www.w3.org/2000/svg" width="16.976" height="22.069" viewBox="0 0 16.976 22.069">
  <path id="Icon_ionic-ios-lock" data-name="Icon ionic-ios-lock" d="M21.6,11.014H20.331V8.537a5.093,5.093,0,1,0-10.186-.069v2.546H8.872A2.128,2.128,0,0,0,6.75,13.136V23.321a2.128,2.128,0,0,0,2.122,2.122H21.6a2.128,2.128,0,0,0,2.122-2.122V13.136A2.128,2.128,0,0,0,21.6,11.014Zm-5.623,6.621v3.65a.761.761,0,0,1-.706.764.744.744,0,0,1-.78-.743V17.635a1.7,1.7,0,1,1,1.485,0Zm2.865-6.621H11.631V8.468a3.607,3.607,0,0,1,7.215,0Z" transform="translate(-6.75 -3.374)" fill="#282828"/>
</svg>
