<svg xmlns="http://www.w3.org/2000/svg" width="18" height="18" viewBox="0 0 18 18">
  <g id="Group_4344" data-name="Group 4344" transform="translate(-131.322 -758.322)">
    <rect id="Rectangle_975" data-name="Rectangle 975" width="18" height="18" transform="translate(131.322 758.322)" fill="#d5d5d5" opacity="0"/>
    <path id="Subtraction_1" data-name="Subtraction 1" d="M6.974,13.947a6.974,6.974,0,1,1,6.974-6.974A6.981,6.981,0,0,1,6.974,13.947ZM4.494,6.2a.775.775,0,1,0,0,1.55H6.2v1.7a.775.775,0,1,0,1.55,0v-1.7h1.7a.775.775,0,1,0,0-1.55h-1.7v-1.7a.775.775,0,1,0-1.55,0V6.2Z" transform="translate(133.291 760.43)" fill="#ef5713"/>
  </g>
</svg>
