<svg xmlns="http://www.w3.org/2000/svg" width="30" height="30" viewBox="0 0 30 30">
  <g id="Group_13231" data-name="Group 13231" transform="translate(-45.95 -429.655)">
    <rect id="Rectangle_996" data-name="Rectangle 996" width="30" height="30" transform="translate(45.95 429.655)" fill="#fff" opacity="0"/>
    <g id="Group_13247" data-name="Group 13247" transform="translate(8.051 397.694)">
      <path id="Path_5222" data-name="Path 5222" d="M57.389,35.186H45.936a3.587,3.587,0,0,0-3.578,3.577v16.4a3.587,3.587,0,0,0,3.576,3.577h4.1a.78.78,0,1,0,0-1.56h-4.1a2.018,2.018,0,0,1-2.013-2.013v-16.4a2.019,2.019,0,0,1,2.015-2.013H57.39A2.018,2.018,0,0,1,59.4,38.763v8.9a.482.482,0,0,0,0,.054.782.782,0,0,0,.247.548.772.772,0,0,0,.56.21.779.779,0,0,0,.756-.807v-8.9A3.587,3.587,0,0,0,57.389,35.186Z" fill="#ef5713"/>
      <path id="Path_5223" data-name="Path 5223" d="M46.805,49.792h4.982a.782.782,0,0,0,.03-1.564H46.856a.782.782,0,0,0-.051,1.563Z" fill="#ef5713"/>
      <path id="Path_5224" data-name="Path 5224" d="M57.239,45.284a.782.782,0,0,0-.781-.782H46.832a.782.782,0,0,0-.031,1.564h9.657A.782.782,0,0,0,57.239,45.284Z" fill="#ef5713"/>
      <path id="Path_5225" data-name="Path 5225" d="M56.514,40.776H46.832a.782.782,0,0,0-.576,1.317.771.771,0,0,0,.545.247h9.682a.782.782,0,0,0,.031-1.564Z" fill="#ef5713"/>
      <circle id="Ellipse_26" data-name="Ellipse 26" cx="1.62" cy="1.62" r="1.62" transform="translate(55.588 52.747)" fill="#ef5713"/>
      <path id="Path_5226" data-name="Path 5226" d="M53.271,57.2a5.7,5.7,0,0,0,7.777,0,12.941,12.941,0,0,0,2.038-2.1c.065-.08.162-.218.2-.275l.009-.014a.782.782,0,0,0,0-.9c-.051-.071-.148-.208-.21-.287a13.014,13.014,0,0,0-2.04-2.1,5.7,5.7,0,0,0-7.776,0,12.946,12.946,0,0,0-2.039,2.1c-.064.08-.16.217-.2.274a.789.789,0,0,0-.01.913c.051.072.147.208.21.287A13.009,13.009,0,0,0,53.271,57.2Zm-.541-2.933c1.512-1.8,3-2.709,4.431-2.709s2.921.911,4.431,2.709l.108.128-.123.082c-1.505,1.786-2.991,2.691-4.416,2.691s-2.92-.911-4.431-2.708l-.081-.1Z" fill="#ef5713"/>
    </g>
  </g>
</svg>
