<svg xmlns="http://www.w3.org/2000/svg" width="30" height="30" viewBox="0 0 30 30">
  <g id="Group_13250" data-name="Group 13250" transform="translate(-44.95 -429.655)">
    <rect id="Rectangle_996" data-name="Rectangle 996" width="30" height="30" transform="translate(44.95 429.655)" fill="#fff" opacity="0"/>
    <g id="download_copy" data-name="download copy" transform="translate(47.951 432.655)">
      <g id="Group_13226" data-name="Group 13226">
        <g id="Group_13225" data-name="Group 13225">
          <path id="Path_5206" data-name="Path 5206" d="M22.549,1.3A4.412,4.412,0,0,0,19.409,0H4.441A4.446,4.446,0,0,0,0,4.441V19.409a4.446,4.446,0,0,0,4.441,4.441H19.409a4.446,4.446,0,0,0,4.441-4.441V4.441A4.412,4.412,0,0,0,22.549,1.3Zm-.1,18.108a3.047,3.047,0,0,1-3.043,3.043H4.441A3.047,3.047,0,0,1,1.4,19.409V4.441A3.047,3.047,0,0,1,4.441,1.4H19.409a3.043,3.043,0,0,1,3.043,3.043Z" fill="#ef5713"/>
        </g>
      </g>
    </g>
    <path id="Icon_ionic-ios-arrow-back" data-name="Icon ionic-ios-arrow-back" d="M14.887,10.745,11.442,7.3a.651.651,0,0,1,.922-.919l3.9,3.9a.649.649,0,0,1,.019.9l-3.92,3.928a.651.651,0,0,1-.922-.919Z" transform="translate(50.929 431.968)" fill="#ef5713"/>
    <g id="Group_13251" data-name="Group 13251" transform="translate(52.618 446.967) rotate(-90)">
      <g id="Group_13227" data-name="Group 13227">
        <path id="Path_5207" data-name="Path 5207" d="M170.073,102.041a.7.7,0,0,0-.988,0l-2.512,2.512V97.1a.7.7,0,1,0-1.4,0v7.454l-2.512-2.512a.7.7,0,0,0-.988.988l3.7,3.7a.7.7,0,0,0,.988,0l3.7-3.7A.7.7,0,0,0,170.073,102.041Z" transform="translate(-161.471 -96.4)" fill="#ef5713"/>
      </g>
    </g>
    <g id="Group_13252" data-name="Group 13252" transform="translate(52.516 449.751)">
      <g id="Group_13229" data-name="Group 13229">
        <path id="Path_5208" data-name="Path 5208" d="M110.572,385.6H97.1a.7.7,0,0,0,0,1.4h13.471a.7.7,0,0,0,0-1.4Z" transform="translate(-96.402 -385.601)" fill="#ef5713"/>
      </g>
    </g>
  </g>
</svg>
