<svg xmlns="http://www.w3.org/2000/svg" width="30" height="30" viewBox="0 0 30 30">
  <g id="Group_13192" data-name="Group 13192" transform="translate(-45 -430)">
    <rect id="Rectangle_996" data-name="Rectangle 996" width="30" height="30" transform="translate(45 430)" fill="#fff" opacity="0"/>
    <g id="Group_13144" data-name="Group 13144" transform="translate(48.485 432.343)">
      <path id="Path_5195" data-name="Path 5195" d="M320.37-59.818H310.059a.812.812,0,0,0-.779.836.816.816,0,0,0,.785.784H320.37a.814.814,0,0,0,.811-.81A.815.815,0,0,0,320.37-59.818Z" transform="translate(-305.247 69.831)" fill="#ef5713"/>
      <path id="Path_5196" data-name="Path 5196" d="M316.5-50.743a.787.787,0,0,0,.788-.762.79.79,0,0,0-.759-.809H310.4a.784.784,0,0,0-.545.248.782.782,0,0,0-.211.563.789.789,0,0,0,.76.761H316.5Z" transform="translate(-305.43 66.079)" fill="#ef5713"/>
      <path id="Path_5197" data-name="Path 5197" d="M321.151-69.879v-6.151a3.836,3.836,0,0,0-3.814-3.815H305.029a3.834,3.834,0,0,0-3.814,3.815v17.62a3.834,3.834,0,0,0,3.814,3.814h3.35a.78.78,0,0,0,.586-.218.814.814,0,0,0,.256-.566A.812.812,0,0,0,309-55.96a.81.81,0,0,0-.567-.257h-3.405a2.2,2.2,0,0,1-2.192-2.191V-76.029a2.205,2.205,0,0,1,2.192-2.192h12.307a2.2,2.2,0,0,1,2.192,2.192v6.157a.807.807,0,0,0,.805.779h.026l.007.062v-.062A.815.815,0,0,0,321.151-69.879Z" transform="translate(-301.215 79.844)" fill="#ef5713"/>
      <path id="Path_5198" data-name="Path 5198" d="M309.646-67.027a.791.791,0,0,0,.76.76h9.987a.786.786,0,0,0,.543-.248.779.779,0,0,0,.211-.562.79.79,0,0,0-.758-.76H310.4A.787.787,0,0,0,309.646-67.027Z" transform="translate(-305.43 73.841)" fill="#ef5713"/>
      <path id="Path_5195-2" data-name="Path 5195" d="M333.036-55.208l-.526-.526a2.237,2.237,0,0,0-3.158,0l-8,8a.659.659,0,0,0-.172.293l-1.052,3.8a.665.665,0,0,0,.462.816.657.657,0,0,0,.354,0l3.8-1.052a.664.664,0,0,0,.292-.171l8-8A2.233,2.233,0,0,0,333.036-55.208Zm-9.7,10.343-1.613.448.447-1.614Zm7.5-6.86-6.245,6.244-1.81-1.807,6.245-6.243Zm1.272-1.25c-.15.185-.3.346-.335.313-.582-.62-1.2-1.208-1.807-1.81l.324-.324a.928.928,0,0,1,1.282,0l.526.526a.942.942,0,0,1,.323.836A2.227,2.227,0,0,1,332.108-52.975Z" transform="translate(-310.659 68.115)" fill="#ef5713"/>
    </g>
  </g>
</svg>
