<svg xmlns="http://www.w3.org/2000/svg" width="30" height="30" viewBox="0 0 30 30">
  <g id="Group_13094" data-name="Group 13094" transform="translate(-45 -430)">
    <rect id="Rectangle_996" data-name="Rectangle 996" width="30" height="30" transform="translate(45 430)" fill="#fff" opacity="0"/>
    <g id="settings" transform="translate(47 431.112)">
      <g id="Group_13095" data-name="Group 13095" transform="translate(1 1.888)">
        <g id="Group_13094-2" data-name="Group 13094" transform="translate(0 0)">
          <path id="Path_5028" data-name="Path 5028" d="M23.205,186.628c-.38-.228-.77-.458-1.16-.683a10.1,10.1,0,0,0,0-2.351c.391-.226.781-.455,1.159-.682a1.523,1.523,0,0,0,.617-1.877h0l-.831-2.005a1.523,1.523,0,0,0-1.764-.891c-.428.107-.866.22-1.3.337a10.1,10.1,0,0,0-1.663-1.662c.117-.436.23-.874.337-1.3a1.523,1.523,0,0,0-.891-1.764l-2.005-.831a1.523,1.523,0,0,0-1.877.617c-.228.379-.457.769-.683,1.16a10.1,10.1,0,0,0-2.351,0c-.226-.392-.455-.781-.682-1.159a1.523,1.523,0,0,0-1.877-.617l-2.005.831a1.523,1.523,0,0,0-.891,1.764c.107.429.22.867.337,1.3a10.092,10.092,0,0,0-1.662,1.663c-.437-.117-.875-.231-1.3-.337a1.523,1.523,0,0,0-1.764.891l-.831,2.005a1.523,1.523,0,0,0,.617,1.877c.379.228.769.457,1.16.683a10.1,10.1,0,0,0,0,2.351c-.391.225-.78.455-1.159.683A1.523,1.523,0,0,0,.114,188.5l.831,2.005a1.523,1.523,0,0,0,1.764.891c.428-.107.866-.22,1.3-.337a10.1,10.1,0,0,0,1.663,1.662c-.117.437-.231.875-.337,1.3a1.523,1.523,0,0,0,.891,1.764l2.005.831a1.5,1.5,0,0,0,.574.114,1.523,1.523,0,0,0,1.3-.731c.226-.376.456-.766.683-1.16a10.112,10.112,0,0,0,2.351,0c.224.389.454.779.682,1.159a1.523,1.523,0,0,0,1.877.617l2.005-.831a1.523,1.523,0,0,0,.891-1.764c-.106-.426-.219-.864-.337-1.3a10.1,10.1,0,0,0,1.662-1.663c.436.117.874.23,1.3.337a1.523,1.523,0,0,0,1.764-.891l.831-2.005A1.523,1.523,0,0,0,23.205,186.628Zm-1.674,3.183c-.412-.1-.832-.212-1.249-.325a1.511,1.511,0,0,0-1.589.53,8.48,8.48,0,0,1-1.48,1.48,1.51,1.51,0,0,0-.529,1.588c.113.42.222.84.325,1.249l-1.843.763c-.219-.366-.439-.74-.653-1.112a1.511,1.511,0,0,0-1.5-.749,8.487,8.487,0,0,1-2.093,0,1.51,1.51,0,0,0-1.5.749c-.217.377-.437.751-.654,1.113l-1.843-.764c.1-.411.212-.831.325-1.249a1.511,1.511,0,0,0-.53-1.589,8.48,8.48,0,0,1-1.48-1.479,1.51,1.51,0,0,0-1.588-.529c-.418.113-.838.222-1.249.325l-.764-1.843c.364-.218.738-.438,1.112-.653a1.51,1.51,0,0,0,.749-1.5,8.49,8.49,0,0,1,0-2.093,1.511,1.511,0,0,0-.749-1.5c-.374-.215-.748-.435-1.113-.654l.764-1.843c.411.1.83.212,1.249.325a1.511,1.511,0,0,0,1.589-.53,8.476,8.476,0,0,1,1.479-1.48,1.51,1.51,0,0,0,.529-1.589c-.112-.417-.221-.836-.325-1.249l1.843-.763c.218.363.437.737.653,1.112a1.51,1.51,0,0,0,1.5.749,8.474,8.474,0,0,1,2.093,0,1.511,1.511,0,0,0,1.5-.749c.215-.374.435-.748.654-1.113l1.843.763c-.1.412-.212.831-.325,1.249a1.511,1.511,0,0,0,.53,1.589,8.483,8.483,0,0,1,1.48,1.479,1.51,1.51,0,0,0,1.589.529c.418-.112.837-.222,1.249-.325l.763,1.843c-.364.218-.737.438-1.112.653a1.51,1.51,0,0,0-.749,1.5,8.481,8.481,0,0,1,0,2.093,1.511,1.511,0,0,0,.749,1.5c.374.215.748.435,1.113.654Z" transform="translate(0 -172.801)" fill="#ef5713"/>
        </g>
      </g>
      <g id="Group_13097" data-name="Group 13097" transform="translate(7.456 8.344)">
        <g id="Group_13096" data-name="Group 13096" transform="translate(0 0)">
          <path id="Path_5029" data-name="Path 5029" d="M102.1,267.7h0a5.518,5.518,0,1,0-2.983,7.2A5.518,5.518,0,0,0,102.1,267.7ZM98.5,273.4a3.895,3.895,0,1,1,2.108-5.088A3.87,3.87,0,0,1,98.5,273.4Z" transform="translate(-91.494 -264.293)" fill="#ef5713"/>
        </g>
      </g>
    </g>
  </g>
</svg>
