<svg xmlns="http://www.w3.org/2000/svg" width="79" height="79" viewBox="0 0 79 79">
  <g id="Group_13046" data-name="Group 13046" transform="translate(-70.316 -70.496)">
    <rect id="Rectangle_996" data-name="Rectangle 996" width="79" height="79" transform="translate(70.316 70.496)" fill="rgba(255,255,255,0)"/>
    <g id="check-mark-button" transform="translate(81.465 82.145)">
      <g id="Group_13270" data-name="Group 13270">
        <path id="Path_5233" data-name="Path 5233" d="M27.851,0A27.851,27.851,0,1,0,55.7,27.851,27.883,27.883,0,0,0,27.851,0Zm0,51.213A23.363,23.363,0,1,1,51.213,27.851,23.388,23.388,0,0,1,27.851,51.213Z" fill="#ef5713"/>
        <path id="Path_5234" data-name="Path 5234" d="M36.729,18.97l-13,13-4.757-4.757A2.244,2.244,0,0,0,15.8,30.387l6.344,6.344a2.242,2.242,0,0,0,3.173,0L39.9,22.144a2.244,2.244,0,0,0-3.174-3.174Z" fill="#ef5713"/>
      </g>
    </g>
  </g>
</svg>
