<svg xmlns="http://www.w3.org/2000/svg" width="30" height="30" viewBox="0 0 30 30">
  <g id="Group_13288" data-name="Group 13288" transform="translate(-45 -430)">
    <rect id="Rectangle_996" data-name="Rectangle 996" width="30" height="30" transform="translate(45 430)" fill="#ef5713" opacity="0"/>
    <g id="Group_13079" data-name="Group 13079" transform="translate(46.82 433.993)">
      <path id="Path_5007" data-name="Path 5007" d="M416.7,324.213l-2.7,2.7-.783-.783a.71.71,0,0,0-1,1.008l1.282,1.282a.711.711,0,0,0,1,0l3.207-3.207a.711.711,0,0,0-1.01-1Z" transform="translate(-401.898 -320.278)" fill="#ef5713"/>
      <path id="Path_5008" data-name="Path 5008" d="M404.392,342.508h2.557a.7.7,0,1,0,0-1.4h-2.557a.7.7,0,1,0,0,1.4Z" transform="translate(-398.151 -327.976)" fill="#ef5713"/>
      <path id="Path_5009" data-name="Path 5009" d="M413.145,342.508h8.826a.7.7,0,1,0,0-1.4h-8.826a.7.7,0,1,0,0,1.4Z" transform="translate(-402.092 -327.976)" fill="#ef5713"/>
      <path id="Path_5010" data-name="Path 5010" d="M404.392,348.711H418.03a.7.7,0,1,0,0-1.4H404.392a.7.7,0,1,0,0,1.4Z" transform="translate(-398.151 -330.77)" fill="#ef5713"/>
      <path id="Path_5011" data-name="Path 5011" d="M415.622,319.351h-4.459a5.8,5.8,0,0,0-8.981,0h-4.459a4.121,4.121,0,0,0-4.111,4.11v11.933a4.122,4.122,0,0,0,4.111,4.11h17.9a4.121,4.121,0,0,0,4.11-4.111V323.461A4.12,4.12,0,0,0,415.622,319.351Zm-8.95,8.1a4.413,4.413,0,1,1,4.413-4.413A4.417,4.417,0,0,1,406.672,327.448Zm-3.675.1a5.815,5.815,0,0,0,9.019-6.8h3.6a2.718,2.718,0,0,1,2.709,2.709v11.932a2.716,2.716,0,0,1-2.708,2.709h-17.9a2.716,2.716,0,0,1-2.709-2.708V323.462a2.718,2.718,0,0,1,2.709-2.709h3.6A5.84,5.84,0,0,0,403,327.551Z" transform="translate(-393.612 -317.22)" fill="#ef5713"/>
    </g>
  </g>
</svg>
