<svg xmlns="http://www.w3.org/2000/svg" width="30" height="30" viewBox="0 0 30 30">
  <g id="Group_13405" data-name="Group 13405" transform="translate(-44.931 -430.209)">
    <rect id="Rectangle_996" data-name="Rectangle 996" width="30" height="30" transform="translate(44.931 430.209)" fill="#ef5713" opacity="0"/>
    <g id="Group_13155" data-name="Group 13155" transform="translate(45.978 431.986)">
      <path id="Path_5124" data-name="Path 5124" d="M1301.219,108.277h-1.363a.669.669,0,0,0,0,1.339h1.363a.669.669,0,0,0,0-1.339Z" transform="translate(-1293.949 -83.201)" fill="#ef5713"/>
      <path id="Path_5125" data-name="Path 5125" d="M1307.519,108.277h-1.362a.669.669,0,1,0,0,1.339h1.362a.669.669,0,1,0,0-1.339Z" transform="translate(-1296.892 -83.201)" fill="#ef5713"/>
      <path id="Path_5126" data-name="Path 5126" d="M1313.82,108.277h-1.362a.669.669,0,1,0,0,1.339h1.362a.669.669,0,0,0,0-1.339Z" transform="translate(-1299.837 -83.201)" fill="#ef5713"/>
      <path id="Path_5127" data-name="Path 5127" d="M1320.121,108.277h-1.362a.669.669,0,0,0,0,1.339h1.362a.669.669,0,0,0,0-1.339Z" transform="translate(-1302.781 -83.201)" fill="#ef5713"/>
      <path id="Path_5128" data-name="Path 5128" d="M1326.441,108.277h-1.362a.669.669,0,1,0,0,1.339h1.362a.669.669,0,1,0,0-1.339Z" transform="translate(-1305.733 -83.201)" fill="#ef5713"/>
      <path id="Path_5129" data-name="Path 5129" d="M1315.965,61.215h-25.249a1.372,1.372,0,0,0-1.359,1.359v4.8a1.373,1.373,0,0,0,1.359,1.358h2.189V86.959a.669.669,0,0,0,1.339,0V66.754a1.134,1.134,0,0,1,1.133-1.132h16.077a2.459,2.459,0,0,0-.275,1.132l-.032,20.206a.665.665,0,0,0,.211.467.67.67,0,0,0,1.128-.471l.031-18.218h3.451a1.372,1.372,0,0,0,1.358-1.359v-4.8A1.37,1.37,0,0,0,1315.965,61.215Zm-3.45,5.539a1.133,1.133,0,0,1,1.132-1.132h.542a.67.67,0,0,0,0-1.339h-21.817a.669.669,0,0,0-.509,1.127.665.665,0,0,0,.468.212h.876a2.445,2.445,0,0,0-.281,1.132V67.4l-2.227-.021.023-4.822,25.269.022-.022,4.822h-3.449Z" transform="translate(-1289.357 -61.215)" fill="#ef5713"/>
      <path id="Path_5130" data-name="Path 5130" d="M1303.1,79.543h6.046a.67.67,0,0,0,.02-1.339H1303.1a.67.67,0,0,0-.648.691A.672.672,0,0,0,1303.1,79.543Z" transform="translate(-1295.474 -69.152)" fill="#ef5713"/>
      <path id="Path_5131" data-name="Path 5131" d="M1322.237,78.415a.664.664,0,0,0-.469-.211h-3.025a.673.673,0,0,0-.48.181.67.67,0,0,0,.438,1.158h3.047a.67.67,0,0,0,.487-1.128Z" transform="translate(-1302.763 -69.151)" fill="#ef5713"/>
      <path id="Path_5132" data-name="Path 5132" d="M1303.088,85.411h6.028a.669.669,0,0,0,0-1.339h-6.027a.669.669,0,1,0,0,1.339Z" transform="translate(-1295.459 -71.893)" fill="#ef5713"/>
      <path id="Path_5133" data-name="Path 5133" d="M1321.747,84.072h-2.992a.669.669,0,0,0,0,1.339h2.992a.669.669,0,1,0,0-1.339Z" transform="translate(-1302.778 -71.893)" fill="#ef5713"/>
      <path id="Path_5134" data-name="Path 5134" d="M1303.088,91.289h6.028a.669.669,0,0,0,0-1.339h-6.027a.669.669,0,1,0,0,1.339Z" transform="translate(-1295.459 -74.639)" fill="#ef5713"/>
      <path id="Path_5135" data-name="Path 5135" d="M1318.754,91.289h2.992a.669.669,0,1,0,0-1.339h-2.992a.669.669,0,0,0,0,1.339Z" transform="translate(-1302.778 -74.639)" fill="#ef5713"/>
    </g>
  </g>
</svg>
