<svg xmlns="http://www.w3.org/2000/svg" xmlns:xlink="http://www.w3.org/1999/xlink" width="30" height="30" viewBox="0 0 30 30">
  <defs>
    <clipPath id="clip-path">
      <rect id="Rectangle_1107" data-name="Rectangle 1107" width="27.996" height="28" fill="#ef5713"/>
    </clipPath>
  </defs>
  <g id="Group_13577" data-name="Group 13577" transform="translate(23121 10170)">
    <rect id="Rectangle_1104" data-name="Rectangle 1104" width="30" height="30" transform="translate(-23121 -10170)" fill="#fff" opacity="0"/>
    <g id="Group_13576" data-name="Group 13576" transform="translate(-23120 -10169)">
      <g id="Group_13575" data-name="Group 13575" clip-path="url(#clip-path)">
        <path id="Path_5331" data-name="Path 5331" d="M0,27.18c.161-.6.327-1.206.482-1.811.225-.881.44-1.764.662-2.646a.642.642,0,0,1,.74-.57c.135,0,.269,0,.441,0V21.8c0-.8,0-1.6,0-2.4,0-.534.213-.743.748-.744q1.6,0,3.2,0c.514,0,.733.221.735.729,0,.136,0,.271,0,.431.124.005.231.014.338.014.811,0,1.621,0,2.432,0,.526,0,.727.2.728.728s0,1.035,0,1.573h2.3c0-.107.014-.213.014-.32q0-2.309,0-4.618c0-.1,0-.2.006-.3a.555.555,0,0,1,.562-.554c.327-.015.656-.007.983-.007h4.256c.006-.125.014-.221.014-.317,0-.8,0-1.6,0-2.4,0-.573.2-.773.771-.776h.378V3.519h-.279q-5,0-10,0a.363.363,0,0,0-.393.239,1.5,1.5,0,0,1-.746.733.309.309,0,0,0-.2.334c.007.792,0,1.585.008,2.377a.744.744,0,0,0,.112.379c.6.921,1.221,1.834,1.826,2.755a.331.331,0,0,0,.334.172c.182-.011.364,0,.546,0a.593.593,0,0,1,.673.672c.006.783,0,1.567,0,2.35,0,.319,0,.638,0,.956-.006.491-.21.7-.7.7-1.1,0-2.2,0-3.307,0q-1.708,0-3.416,0c-.562,0-.755-.2-.756-.755q0-1.612,0-3.225c0-.484.222-.744.7-.688A1.07,1.07,0,0,0,5.358,9.88c.458-.775.985-1.509,1.491-2.255a.8.8,0,0,0,.143-.481c-.007-.847,0-1.693,0-2.556a1.9,1.9,0,0,1-1.037-.992c-.02-.043-.116-.068-.179-.072-.163-.01-.328,0-.492,0a.581.581,0,0,1-.625-.586q-.023-1.175,0-2.35A.576.576,0,0,1,5.288.005c.847,0,1.694,0,2.541,0q6.75,0,13.5,0a1.592,1.592,0,0,1,.757.182c.647.334,1.3.652,1.951.98a.646.646,0,0,1,.385.935c-.333,1-.672,2-1,3a1.484,1.484,0,0,0-.078.452q-.007,3.5,0,7v.286c.192,0,.362-.005.531,0a.587.587,0,0,1,.625.665q0,2.842,0,5.684a.6.6,0,0,1-.657.668c-.518.008-1.037,0-1.593,0,.029.1.044.175.072.244.242.608.5,1.213.725,1.826a.318.318,0,0,0,.361.232c1.284-.007,2.569-.009,3.853,0a.978.978,0,0,1,.51.142.561.561,0,0,1,.189.683,6.666,6.666,0,0,1-5.021,4.856c-.262.068-.531.108-.8.161H.383L0,27.617V27.18m2.21-3.817L1.35,26.809c.124.007.2.016.285.016,6.577,0,13.154.015,19.731-.008a5.429,5.429,0,0,0,5.015-3.026c.071-.13.123-.271.193-.429Zm11.815-5.839v4.613h7.811a1.429,1.429,0,0,0-.04-.148c-.574-1.435-1.153-2.868-1.718-4.306-.069-.175-.178-.171-.318-.171H14.269c-.08,0-.159.007-.244.01M5.859,2.337h.375c4.217,0,8.434-.015,12.651.011a6.768,6.768,0,0,0,2.769-.461c.2-.087.421-.145.689-.236a3.133,3.133,0,0,0-1.426-.478c-4.891.02-9.782.012-14.673.012H5.859ZM4.691,13.983h5.782V11.7H4.691Zm18.6,4.67V14.036H19.854v2.3h.413c.443,0,.579.094.742.5.217.54.428,1.082.654,1.618.035.082.135.192.209.194.463.018.927.009,1.416.009M22.966,2.706l-1.948.645v9.461H22.14V12.47c0-2.312,0-4.623,0-6.935a2.384,2.384,0,0,1,.112-.693c.217-.693.456-1.379.709-2.137M3.529,22.14H5.8V19.866H3.529ZM9.3,21.034H7.026v1.108H9.3ZM8.8,10.488,7.58,8.665,6.365,10.488Z" transform="translate(0 0)" fill="#ef5713"/>
        <path id="Path_5332" data-name="Path 5332" d="M137.884,328.511a1.171,1.171,0,0,1-1.192,1.163,1.184,1.184,0,0,1-1.163-1.172,1.2,1.2,0,0,1,1.186-1.183,1.183,1.183,0,0,1,1.169,1.192" transform="translate(-125.632 -303.415)" fill="#ef5713"/>
        <path id="Path_5333" data-name="Path 5333" d="M233.7,328.5a1.171,1.171,0,0,1-1.18,1.175,1.183,1.183,0,0,1-1.175-1.187,1.2,1.2,0,0,1,1.173-1.169,1.183,1.183,0,0,1,1.182,1.18" transform="translate(-214.446 -303.412)" fill="#ef5713"/>
      </g>
    </g>
  </g>
</svg>
