<svg xmlns="http://www.w3.org/2000/svg" xmlns:xlink="http://www.w3.org/1999/xlink" width="30" height="30" viewBox="0 0 30 30">
  <defs>
    <clipPath id="clip-path">
      <rect id="Rectangle_1109" data-name="Rectangle 1109" width="7.747" height="7.626" fill="#ef5713"/>
    </clipPath>
  </defs>
  <g id="Group_13587" data-name="Group 13587" transform="translate(22665 9769)">
    <rect id="Rectangle_996" data-name="Rectangle 996" width="30" height="30" transform="translate(-22665 -9769)" fill="#fff" opacity="0"/>
    <g id="Group_13586" data-name="Group 13586" transform="translate(32.581 0.174)">
      <g id="Group_13584" data-name="Group 13584" transform="translate(-22685.301 -9763.6)">
        <g id="Group_13583" data-name="Group 13583" clip-path="url(#clip-path)">
          <path id="Path_5340" data-name="Path 5340" d="M0,3.834V3.789a.165.165,0,0,0,.014-.034c.072-.4.144-.809.212-1.214.009-.056.027-.068.083-.057.2.039.407.071.61.11.052.01.071,0,.1-.051q.157-.288.329-.568c.027-.044.032-.068,0-.108-.137-.158-.269-.321-.406-.48C.9,1.352.9,1.333.94,1.3Q1.424.9,1.9.492C1.942.458,1.963.456,2,.5c.132.163.269.321.4.483A.071.071,0,0,0,2.5,1q.313-.121.631-.229A.069.069,0,0,0,3.185.7c0-.207,0-.414,0-.621,0-.053.008-.075.069-.075Q3.877,0,4.5,0c.052,0,.069.014.068.067,0,.207,0,.414,0,.621,0,.051.014.071.065.088q.314.106.623.227a.071.071,0,0,0,.1-.024c.133-.162.269-.321.4-.483.029-.036.048-.045.089-.011q.482.409.968.812c.042.035.032.054,0,.089-.135.157-.266.317-.4.474a.079.079,0,0,0-.008.114c.115.186.224.376.329.568.026.047.047.059.1.049.206-.039.412-.071.618-.111.052-.01.065.005.073.052.071.415.143.83.219,1.244.009.051-.008.061-.049.068-.206.035-.412.075-.619.106-.059.009-.07.034-.078.086-.034.216-.07.432-.113.647-.01.05,0,.071.04.094.182.1.362.21.545.312.045.025.052.044.025.09q-.317.542-.628,1.087c-.024.042-.041.05-.085.024-.18-.107-.363-.209-.542-.316a.076.076,0,0,0-.109.012q-.249.22-.509.427a.071.071,0,0,0-.029.1c.075.2.145.4.22.6.016.042.011.059-.035.075q-.6.214-1.193.435c-.045.017-.059,0-.074-.037C4.442,7.388,4.369,7.195,4.3,7c-.02-.057-.041-.071-.106-.069-.216.008-.433.005-.65,0-.05,0-.071.007-.087.053-.07.2-.145.4-.215.6-.016.046-.035.054-.08.037-.392-.145-.785-.289-1.179-.429-.057-.02-.057-.042-.039-.091.074-.2.143-.393.217-.588.017-.044.006-.063-.03-.092q-.261-.212-.515-.432a.068.068,0,0,0-.1-.012c-.18.107-.363.208-.542.316-.048.029-.068.026-.1-.025Q.575,5.721.259,5.183c-.031-.052-.017-.069.029-.095.183-.1.363-.209.544-.313.03-.017.049-.03.04-.075-.044-.225-.083-.45-.12-.676C.745,3.981.732,3.961.685,3.954.456,3.916.228,3.875,0,3.834M3.876,2.372A1.443,1.443,0,1,0,5.319,3.815,1.442,1.442,0,0,0,3.876,2.372" transform="translate(0 -0.001)" fill="#ef5713"/>
        </g>
      </g>
      <path id="Path_5253" data-name="Path 5253" d="M933.853,203.124a2.348,2.348,0,1,0,.884-4.531H918.856a1.014,1.014,0,1,1,0-2.028h0c4.329,0,7.456,0,9.718,0,5.323,0,5.882,0,5.961-.036l.037-.018a.654.654,0,0,0,.346-.335l.022-.035c0-.016.16-.511,1.19-3.731l2.161-6.755a.658.658,0,0,0-.427-.827.66.66,0,0,0-.2-.031h-3.127l.009-.135a7.348,7.348,0,0,0-14.661-1.022,7.555,7.555,0,0,0,0,1.022l.01.134h-2.235l-.686-2.058a.657.657,0,0,0-.625-.45h-1.672a.658.658,0,0,0,0,1.316h1.2l.293.879c.379,1.132.379,1.132,1.693,5.247l1.763,5.514h-.766a2.33,2.33,0,1,0,0,4.66H920.1l-.07.173a2.343,2.343,0,1,0,4.344,0l-.07-.173h8.334l-.07.173A2.339,2.339,0,0,0,933.853,203.124Zm.884-3.216a1.016,1.016,0,0,1,1.014,1.014,1.059,1.059,0,0,1-1.008,1.065h-.013a1.058,1.058,0,0,1-1.007-1.066A1.015,1.015,0,0,1,934.737,199.907Zm-7.524-21.784h.028a6.055,6.055,0,0,1,.025,12.11h-.027a6.055,6.055,0,0,1-.027-12.11Zm-9.128,7.993h2.036l.026.091a7.346,7.346,0,0,0,14.135,0l.026-.091h2.454l-2.921,9.132H921.008Zm4.869,15.531a1.009,1.009,0,0,1-.7.335l-.055,0a1.015,1.015,0,0,1-1.013-.961q0-.054,0-.107a1.015,1.015,0,1,1,1.769.732Z" transform="translate(-23608.598 -9943.98)" fill="#ef5713"/>
    </g>
  </g>
</svg>
