<svg xmlns="http://www.w3.org/2000/svg" width="30" height="30" viewBox="0 0 30 30">
  <g id="Group_13628" data-name="Group 13628" transform="translate(23038 10125)">
    <rect id="Rectangle_1104" data-name="Rectangle 1104" width="30" height="30" transform="translate(-23038 -10125)" fill="#fff" opacity="0"/>
    <path id="Path_5397" data-name="Path 5397" d="M29,24.529a5.026,5.026,0,0,1-.37.728,1.972,1.972,0,0,1-1.671.807q-1.575.015-3.149,0a2.012,2.012,0,0,1-2.094-2.144c.04-1.039.006-2.08.01-3.121a1.979,1.979,0,0,1,2.052-2.062c.3,0,.6,0,.928,0,.011-.156.028-.275.028-.393,0-1.107-.031-2.214.009-3.32A2.209,2.209,0,0,0,22.688,12.8a4.162,4.162,0,0,0-.453-.017h-6.64c-.447,0-.448,0-.448.459q0,2.554,0,5.107c0,.391,0,.385.4.395a6.9,6.9,0,0,1,1.045.06,1.835,1.835,0,0,1,1.53,1.735q.055,1.884,0,3.771a1.813,1.813,0,0,1-1.649,1.709c-.98.061-1.964.044-2.947.053a7.6,7.6,0,0,1-.933-.041,1.833,1.833,0,0,1-1.706-1.778c-.042-1.274-.039-2.553.009-3.827a1.9,1.9,0,0,1,1.941-1.68c.227-.009.454,0,.681,0,.324,0,.339-.015.34-.335q0-1.83,0-3.66c0-.549-.007-1.1,0-1.646,0-.227-.069-.321-.308-.321-2.336.006-4.672-.01-7.008.012a2.232,2.232,0,0,0-2.05,1.2,1.763,1.763,0,0,0-.211.782c-.022,1.239-.011,2.478-.01,3.717a2.492,2.492,0,0,0,.031.252,6.557,6.557,0,0,1,.7,0,3.974,3.974,0,0,1,1.079.178,1.837,1.837,0,0,1,1.2,1.8c.012,1.078.005,2.156,0,3.235a1.971,1.971,0,0,1-2.057,2.113c-1.068.024-2.138.02-3.206,0A1.973,1.973,0,0,1,.06,24.657c-.016-.044-.04-.085-.06-.128V20.273a2.18,2.18,0,0,1,.954-1.257,2.208,2.208,0,0,1,1.114-.278c.291,0,.582,0,.9,0,.01-.148.024-.257.025-.367,0-1.144.025-2.289,0-3.432a3.468,3.468,0,0,1,3.25-3.414c1.018-.056,2.041-.036,3.062-.04,1.39-.006,2.78,0,4.17,0,.372,0,.383-.011.383-.382q0-1.4,0-2.808c0-.318-.021-.332-.34-.34-.51-.012-1.022,0-1.529-.046a1.9,1.9,0,0,1-1.727-1.892c-.014-1.3.022-2.61-.013-3.914A2,2,0,0,1,12.3.01q2.2-.02,4.4,0A2,2,0,0,1,18.756,2.1c-.035,1.219-.042,2.441,0,3.659a2.038,2.038,0,0,1-2.164,2.194c-.388,0-.776.007-1.163,0-.206,0-.287.078-.286.285.005.983.008,1.967,0,2.95,0,.248.113.3.33.3q2.042-.008,4.085,0c1.059,0,2.118-.008,3.176.037a3.509,3.509,0,0,1,3.236,2.852,3.565,3.565,0,0,1,.034.508q0,1.73,0,3.461v.395c.291,0,.551,0,.811,0a2.371,2.371,0,0,1,1.153.238A2.154,2.154,0,0,1,29,20.273ZM14.493,1.278h0c-.728,0-1.456-.007-2.184,0A.7.7,0,0,0,11.525,2q-.013,1.986,0,3.971a.674.674,0,0,0,.575.673,2.731,2.731,0,0,0,.478.043q1.886.005,3.773,0a3.013,3.013,0,0,0,.368-.011.743.743,0,0,0,.76-.863q0-1.816,0-3.631c0-.652-.252-.9-.916-.9-.69,0-1.381,0-2.071,0M14.479,24.8c.529,0,1.059,0,1.588,0,.495-.005.786-.244.794-.728.02-1.124.016-2.249,0-3.373a.669.669,0,0,0-.72-.682q-1.631-.014-3.262,0a.675.675,0,0,0-.735.7c-.02,1.115,0,2.23-.013,3.345a.757.757,0,0,0,.819.746c.51-.013,1.021,0,1.532,0M6,22.411c0-.548,0-1.1,0-1.645a.707.707,0,0,0-.742-.756Q3.631,20,2,20.011a.7.7,0,0,0-.746.75q-.009,1.645,0,3.289a.676.676,0,0,0,.7.735q1.672.028,3.346,0A.7.7,0,0,0,6,24.028c0-.539,0-1.078,0-1.616m21.742.018c0-.548,0-1.1,0-1.645a.712.712,0,0,0-.779-.775q-1.588-.008-3.176,0A.721.721,0,0,0,23,20.8q-.005,1.6,0,3.2a.728.728,0,0,0,.77.789c.208.008.416,0,.624,0,.851,0,1.7,0,2.552,0a.722.722,0,0,0,.806-.8c0-.52,0-1.04,0-1.56" transform="translate(-23037.5 -10123.5)" fill="#ef5713" stroke="#ef5713" stroke-width="0.25"/>
  </g>
</svg>
