<svg xmlns="http://www.w3.org/2000/svg" xmlns:xlink="http://www.w3.org/1999/xlink" width="30" height="30" viewBox="0 0 30 30">
  <defs>
    <clipPath id="clip-path">
      <rect id="Rectangle_1129" data-name="Rectangle 1129" width="28" height="21.64" fill="#ef5713"/>
    </clipPath>
  </defs>
  <g id="Group_13631" data-name="Group 13631" transform="translate(23080 10066)">
    <rect id="Rectangle_1128" data-name="Rectangle 1128" width="30" height="30" transform="translate(-23080 -10066)" fill="#fff" opacity="0"/>
    <g id="Group_13630" data-name="Group 13630" transform="translate(-23079 -10062)">
      <g id="Group_13629" data-name="Group 13629" clip-path="url(#clip-path)">
        <path id="Path_5398" data-name="Path 5398" d="M0,187.054c.081-.279.145-.563.245-.835a5.279,5.279,0,0,1,3.683-3.43c.94-.27,1.9-.487,2.842-.736a.876.876,0,0,1,1.012.352c.516.688,1.038,1.371,1.559,2.056.059.078.122.154.2.253.081-.1.145-.172.2-.25q.781-1.027,1.56-2.055a.837.837,0,0,1,.941-.341c.994.25,1.989.493,2.979.756.324.086.634.222.991.35v-.308c0-.768,0-1.537,0-2.305a.842.842,0,0,1,.952-.942q4.94,0,9.88,0a.841.841,0,0,1,.95.942q0,4.94,0,9.88a.845.845,0,0,1-.966.953q-13.05,0-26.1,0A.969.969,0,0,1,0,190.9v-3.843m1.584,2.678h14.6a.385.385,0,0,0,.026-.09c0-1.445.006-2.89,0-4.334a.352.352,0,0,0-.156-.259,9.282,9.282,0,0,0-1.371-.665c-.684-.226-1.4-.359-2.095-.548a.35.35,0,0,0-.433.159c-.636.849-1.276,1.694-1.934,2.526a1.057,1.057,0,0,1-.5.345.8.8,0,0,1-.895-.381q-.964-1.283-1.944-2.554a.357.357,0,0,0-.28-.134c-.826.2-1.659.384-2.466.646a3.568,3.568,0,0,0-2.3,2.229,9.672,9.672,0,0,0-.243,3.06m16.291-8.457v8.46h8.463v-8.451H24.62v.323c0,.768.008,1.537,0,2.3a.811.811,0,0,1-1.236.76c-.363-.174-.715-.372-1.082-.533a.514.514,0,0,0-.372,0c-.36.158-.7.348-1.059.52a.826.826,0,0,1-1.261-.786c0-.768,0-1.537,0-2.3,0-.1-.01-.192-.015-.3Zm5.077,1.38v-1.267H21.271v1.27a1.241,1.241,0,0,1,1.682,0" transform="translate(0 -169.757)" fill="#ef5713"/>
        <path id="Path_5399" data-name="Path 5399" d="M84.1,5.539A5.533,5.533,0,1,1,78.6,0a5.53,5.53,0,0,1,5.5,5.538M78.574,1.645A3.889,3.889,0,1,0,82.461,5.54a3.887,3.887,0,0,0-3.887-3.895" transform="translate(-69.028 0)" fill="#ef5713"/>
      </g>
    </g>
  </g>
</svg>
