<svg xmlns="http://www.w3.org/2000/svg" xmlns:xlink="http://www.w3.org/1999/xlink" width="30" height="30" viewBox="0 0 30 30">
  <defs>
    <clipPath id="clip-path">
      <rect id="Rectangle_1105" data-name="Rectangle 1105" width="26.797" height="25" fill="#ef5713"/>
    </clipPath>
  </defs>
  <g id="Group_13574" data-name="Group 13574" transform="translate(23168 9873.074)">
    <rect id="Rectangle_1106" data-name="Rectangle 1106" width="30" height="30" transform="translate(-23168 -9873.074)" fill="#fff" opacity="0"/>
    <g id="Group_13573" data-name="Group 13573" transform="translate(-23166 -9870.074)">
      <g id="Group_13572" data-name="Group 13572" clip-path="url(#clip-path)">
        <path id="Path_5330" data-name="Path 5330" d="M0,16.686v-.733c.019-.055.043-.109.057-.166a2.206,2.206,0,0,1,1.019-1.459,9.4,9.4,0,0,1,.951-.428v-.3q0-6.279,0-12.558c0-.1,0-.21.005-.314A.755.755,0,0,1,2.585.044,1.476,1.476,0,0,1,2.972,0q10.4,0,20.8,0c.052,0,.1,0,.157,0a.788.788,0,0,1,.78.787c0,.1,0,.192,0,.288q0,5.782,0,11.564v.335c.079.019.129.035.179.043A2.089,2.089,0,0,1,26,13.555a2.391,2.391,0,0,1,.79,1.84q0,2.655,0,5.311c0,.593.015,1.187-.006,1.779a2.289,2.289,0,0,1-2.322,2.268c-.348-.014-.7-.011-1.046,0a2.156,2.156,0,0,1-1.792-.805.249.249,0,0,0-.29-.094c-.4.1-.81.207-1.219.293-1.056.222-2.11.463-3.173.643A22.268,22.268,0,0,1,13.291,25a29.741,29.741,0,0,1-4.411-.192A7.318,7.318,0,0,1,4.2,22.239C3.1,20.949,2.043,19.631.959,18.333A3.765,3.765,0,0,1,0,16.686m6.709.862a8.616,8.616,0,0,1,.12-1.134A2.127,2.127,0,0,1,8.87,14.8c1.133-.017,2.267-.016,3.4,0a2.7,2.7,0,0,0,1.189-.251c.474-.219.943-.451,1.424-.653a6.141,6.141,0,0,1,3.661-.362,7.914,7.914,0,0,1,2.11.817c.166.087.335.17.511.259a2.333,2.333,0,0,1,1.95-1.626v-6.5H16.594v.3c0,.828,0,1.656,0,2.485a.8.8,0,0,1-.875.876q-2.393,0-4.786,0a.807.807,0,0,1-.884-.9q0-1.242,0-2.485V6.49H3.6V8.366q0,2.838,0,5.676c0,.118-.016.227.109.323a4.985,4.985,0,0,1,.594.548C5.043,15.7,5.773,16.5,6.5,17.3c.063.069.119.145.205.251m1.615.626h6.857a2.225,2.225,0,0,1,.365.022.766.766,0,0,1,.635.727.8.8,0,0,1-.893.831q-3.505,0-7.01,0a3.634,3.634,0,0,1-2.818-1.265c-.47-.527-.955-1.041-1.433-1.56-.349-.378-.692-.761-1.049-1.132a.8.8,0,0,0-1.265.079.753.753,0,0,0,.081.983c1.163,1.414,2.318,2.834,3.5,4.233a6.059,6.059,0,0,0,2.435,1.843,7.247,7.247,0,0,0,2.457.44c1.168.028,2.336.03,3.5.028a17.559,17.559,0,0,0,3.284-.217c1.307-.25,2.6-.565,3.905-.839.186-.039.184-.144.184-.281,0-1.84,0-3.679,0-5.519a.323.323,0,0,0-.216-.337c-.462-.223-.917-.463-1.376-.693a4.651,4.651,0,0,0-4.253-.053c-.378.177-.756.357-1.137.527a3.79,3.79,0,0,1-1.8.38c-.391-.024-.784,0-1.177,0-.715,0-1.43,0-2.145,0a.593.593,0,0,0-.633.565c-.019.4,0,.8,0,1.238m14.8-16.582H16.609V4.871h6.516ZM22.64,18.861q0,1.661,0,3.323a2.71,2.71,0,0,0,.016.365.691.691,0,0,0,.711.629q.562.006,1.125,0a.658.658,0,0,0,.666-.485,1.642,1.642,0,0,0,.058-.464q.005-3.362,0-6.724a1.807,1.807,0,0,0-.013-.287.717.717,0,0,0-.771-.66c-.357,0-.715-.006-1.073,0a.692.692,0,0,0-.7.588,2.2,2.2,0,0,0-.023.391q0,1.661,0,3.323M3.624,4.869h6.4V1.589h-6.4ZM15,1.6h-3.37V4.873H15Zm0,4.885H11.64v2.07h3.367Z" transform="translate(0 0)" fill="#ef5713"/>
      </g>
    </g>
  </g>
</svg>
