<svg xmlns="http://www.w3.org/2000/svg" xmlns:xlink="http://www.w3.org/1999/xlink" width="30.4" height="30.4" viewBox="0 0 30.4 30.4">
  <defs>
    <clipPath id="clip-path">
      <rect id="Rectangle_1124" data-name="Rectangle 1124" width="30.4" height="30.4" fill="none"/>
    </clipPath>
    <clipPath id="clip-path-2">
      <rect id="Rectangle_1122" data-name="Rectangle 1122" width="30.4" height="30.4" transform="translate(0 0)" fill="none"/>
    </clipPath>
    <clipPath id="clip-path-3">
      <rect id="Rectangle_1121" data-name="Rectangle 1121" width="30" height="30" transform="translate(0 0.4)" fill="none"/>
    </clipPath>
    <clipPath id="clip-path-4">
      <rect id="Rectangle_1123" data-name="Rectangle 1123" width="7.747" height="7.627" transform="translate(18.63 4.09)" fill="none"/>
    </clipPath>
  </defs>
  <g id="Group_13620" data-name="Group 13620" transform="translate(22642 9746)">
    <rect id="Rectangle_1111" data-name="Rectangle 1111" width="30" height="30" transform="translate(-22642 -9746)" fill="#fff" opacity="0"/>
    <g id="Group_13619" data-name="Group 13619" transform="translate(-22642 -9746)">
      <g id="Group_13618" data-name="Group 13618" clip-path="url(#clip-path)">
        <g id="Group_13615" data-name="Group 13615">
          <g id="Group_13614" data-name="Group 13614" clip-path="url(#clip-path-2)">
            <g id="Group_13613" data-name="Group 13613" opacity="0">
              <g id="Group_13612" data-name="Group 13612">
                <g id="Group_13611" data-name="Group 13611" clip-path="url(#clip-path-3)">
                  <path id="Path_5374" data-name="Path 5374" d="M0,30.4H30V.4H0ZM26.32,2.18a6.871,6.871,0,0,1,2.7,3.54,6.56,6.56,0,0,1,.36,2.18,6.861,6.861,0,0,1-5.18,6.66,5.425,5.425,0,0,1-1.34.2,2.174,2.174,0,0,1-.36.02,6.864,6.864,0,0,1-4.86-2.02c-.06-.06-.12-.13-.17-.19a5.943,5.943,0,0,1-.88-1.18,6.767,6.767,0,0,1-.96-3.49,6.328,6.328,0,0,1,.13-1.31,5.939,5.939,0,0,1,.4-1.34,6.89,6.89,0,0,1,1.03-1.71c.14-.17.29-.34.45-.5a6.679,6.679,0,0,1,1.05-.86,6.9,6.9,0,0,1,7.63,0" fill="#ef5713"/>
                </g>
              </g>
            </g>
            <path id="Path_5375" data-name="Path 5375" d="M8.319,27.257H6.956a.67.67,0,1,0,0,1.339H8.319a.67.67,0,1,0,0-1.339" fill="#ef5713"/>
            <path id="Path_5376" data-name="Path 5376" d="M11.676,27.257H10.314a.67.67,0,1,0,0,1.339h1.362a.67.67,0,1,0,0-1.339" fill="#ef5713"/>
            <path id="Path_5377" data-name="Path 5377" d="M15.032,27.257H13.67a.67.67,0,1,0,0,1.339h1.362a.67.67,0,1,0,0-1.339" fill="#ef5713"/>
            <path id="Path_5378" data-name="Path 5378" d="M18.389,27.257H17.027a.67.67,0,1,0,0,1.339h1.362a.67.67,0,1,0,0-1.339" fill="#ef5713"/>
            <path id="Path_5379" data-name="Path 5379" d="M21.757,27.257H20.4a.67.67,0,1,0,0,1.339h1.362a.67.67,0,1,0,0-1.339" fill="#ef5713"/>
            <path id="Path_5380" data-name="Path 5380" d="M27.66,2.18H26.32a6.871,6.871,0,0,1,2.7,3.54V3.55a1.37,1.37,0,0,0-1.36-1.37m-4.8,13.2-.02,12.55a.639.639,0,0,0,.21.46.667.667,0,0,0,.95-.03.7.7,0,0,0,.18-.44L24.2,15.2v-.64a5.425,5.425,0,0,1-1.34.2ZM2.41,2.18A1.374,1.374,0,0,0,1.05,3.54v4.8A1.374,1.374,0,0,0,2.41,9.7H4.6V27.93a.67.67,0,0,0,1.34,0V7.72A1.123,1.123,0,0,1,7.07,6.59h8.69a5.939,5.939,0,0,1,.4-1.34H4.06a.67.67,0,0,0-.04,1.34H4.9a2.485,2.485,0,0,0-.28,1.13v.65L2.39,8.35l.02-4.83,14,.02h.78c.14-.17.29-.34.45-.5a6.679,6.679,0,0,1,1.05-.86Z" fill="#ef5713"/>
            <path id="Path_5381" data-name="Path 5381" d="M8.675,12.572h6.046a.67.67,0,0,0,.02-1.339H8.675a.67.67,0,0,0,0,1.339" fill="#ef5713"/>
            <path id="Path_5382" data-name="Path 5382" d="M17.47,12.57h-.48a.644.644,0,0,1-.47-.21.664.664,0,0,1,.03-.94c.01-.01.03-.03.04-.03a5.943,5.943,0,0,0,.88,1.18" fill="#ef5713"/>
            <path id="Path_5383" data-name="Path 5383" d="M8.678,15.7h6.028a.67.67,0,1,0,0-1.339H8.679a.67.67,0,1,0,0,1.339Z" fill="#ef5713"/>
            <path id="Path_5384" data-name="Path 5384" d="M20.018,14.36H17.026a.67.67,0,0,0,0,1.339h2.992a.67.67,0,1,0,0-1.339" fill="#ef5713"/>
            <path id="Path_5385" data-name="Path 5385" d="M8.678,18.831h6.028a.669.669,0,1,0,0-1.339H8.679a.669.669,0,1,0,0,1.339Z" fill="#ef5713"/>
            <path id="Path_5386" data-name="Path 5386" d="M17.025,18.831h2.992a.669.669,0,0,0,0-1.339H17.025a.669.669,0,1,0,0,1.339" fill="#ef5713"/>
            <path id="Path_5387" data-name="Path 5387" d="M29.02,4.2a7.243,7.243,0,0,0-1.67-2.02,7.484,7.484,0,0,0-9.69,0,6.016,6.016,0,0,0-.46.42,6.449,6.449,0,0,0-.79.94,7.225,7.225,0,0,0-.92,1.71,6.817,6.817,0,0,0-.37,1.34A7.014,7.014,0,0,0,15,7.9a7.473,7.473,0,0,0,2.2,5.31,6.958,6.958,0,0,0,1.5,1.15,6.883,6.883,0,0,0,1.98.81,7.261,7.261,0,0,0,1.82.23,2.174,2.174,0,0,0,.36-.02,5.929,5.929,0,0,0,1.34-.18,7.489,7.489,0,0,0,4.82-11m-1.65,8.56a6.788,6.788,0,0,1-3.17,1.8,5.425,5.425,0,0,1-1.34.2,2.174,2.174,0,0,1-.36.02,6.864,6.864,0,0,1-4.86-2.02c-.06-.06-.12-.13-.17-.19a5.943,5.943,0,0,1-.88-1.18,6.767,6.767,0,0,1-.96-3.49,6.328,6.328,0,0,1,.13-1.31,5.939,5.939,0,0,1,.4-1.34,6.89,6.89,0,0,1,1.03-1.71c.14-.17.29-.34.45-.5a6.679,6.679,0,0,1,1.05-.86A6.867,6.867,0,0,1,29.02,5.72a6.56,6.56,0,0,1,.36,2.18,6.854,6.854,0,0,1-2.01,4.86" fill="#ef5713"/>
            <path id="Path_5388" data-name="Path 5388" d="M29.02,4.2a7.243,7.243,0,0,0-1.67-2.02,7.484,7.484,0,0,0-9.69,0,6.016,6.016,0,0,0-.46.42,6.449,6.449,0,0,0-.79.94,7.225,7.225,0,0,0-.92,1.71,6.817,6.817,0,0,0-.37,1.34A7.014,7.014,0,0,0,15,7.9a7.473,7.473,0,0,0,2.2,5.31,6.958,6.958,0,0,0,1.5,1.15,6.883,6.883,0,0,0,1.98.81,7.261,7.261,0,0,0,1.82.23,2.174,2.174,0,0,0,.36-.02,5.929,5.929,0,0,0,1.34-.18,7.489,7.489,0,0,0,4.82-11Zm-1.65,8.56a6.788,6.788,0,0,1-3.17,1.8,5.425,5.425,0,0,1-1.34.2,2.174,2.174,0,0,1-.36.02,6.864,6.864,0,0,1-4.86-2.02c-.06-.06-.12-.13-.17-.19a5.943,5.943,0,0,1-.88-1.18,6.767,6.767,0,0,1-.96-3.49,6.328,6.328,0,0,1,.13-1.31,5.939,5.939,0,0,1,.4-1.34,6.89,6.89,0,0,1,1.03-1.71c.14-.17.29-.34.45-.5a6.679,6.679,0,0,1,1.05-.86A6.867,6.867,0,0,1,29.02,5.72a6.56,6.56,0,0,1,.36,2.18A6.854,6.854,0,0,1,27.37,12.76Z" fill="none" stroke="#ef5713" stroke-width="0.8"/>
          </g>
        </g>
        <g id="Group_13617" data-name="Group 13617">
          <g id="Group_13616" data-name="Group 13616" clip-path="url(#clip-path-4)">
            <path id="Path_5389" data-name="Path 5389" d="M18.63,7.924V7.879a.143.143,0,0,0,.014-.034c.072-.4.144-.809.212-1.214.009-.056.027-.068.083-.057.2.039.407.071.61.11.052.01.071,0,.1-.051.1-.192.214-.381.329-.568.027-.044.032-.068,0-.108-.137-.158-.269-.321-.406-.48-.042-.035-.042-.054,0-.087q.484-.4.96-.808c.042-.034.063-.036.1.008.132.163.269.321.4.483a.072.072,0,0,0,.1.018h0q.314-.122.631-.229a.068.068,0,0,0,.054-.071V4.169c0-.053.008-.075.069-.075q.622,0,1.246,0c.052,0,.069.014.068.067v.621a.077.077,0,0,0,.065.088c.209.071.417.146.623.227a.071.071,0,0,0,.1-.021l0,0c.133-.162.269-.321.4-.483.029-.036.048-.045.089-.011q.481.41.968.812c.042.035.032.054,0,.089-.135.157-.266.317-.4.474a.078.078,0,0,0-.01.111l0,0c.115.186.224.376.329.568a.077.077,0,0,0,.1.049c.206-.039.412-.071.618-.111.052-.01.065,0,.073.052.071.415.143.83.219,1.244.009.051-.008.061-.049.068-.206.035-.412.075-.619.106-.059.009-.07.034-.078.086-.034.216-.07.432-.113.647a.072.072,0,0,0,.04.094c.182.1.362.21.545.312.045.025.052.044.025.09q-.317.542-.628,1.087c-.024.042-.041.05-.085.024-.18-.107-.363-.209-.542-.316a.075.075,0,0,0-.107.01l0,0q-.249.22-.509.427a.071.071,0,0,0-.032.095l0,.005c.075.2.145.4.22.6.016.042.011.059-.035.075q-.6.214-1.193.435c-.045.017-.059,0-.074-.037-.069-.2-.142-.391-.211-.586-.02-.057-.041-.071-.106-.069-.216.008-.433.005-.65,0-.05,0-.071.007-.087.053-.07.2-.145.4-.215.6-.016.046-.035.054-.08.037-.392-.145-.785-.289-1.179-.429-.057-.02-.057-.042-.039-.091.074-.2.143-.393.217-.588.017-.044.006-.063-.03-.092q-.261-.211-.515-.432a.068.068,0,0,0-.1-.016l0,0c-.18.107-.363.208-.542.316-.048.029-.068.026-.1-.025q-.3-.547-.615-1.085c-.031-.052-.017-.069.029-.095.183-.1.363-.209.544-.313.03-.017.049-.03.04-.075-.044-.225-.083-.45-.12-.676-.007-.043-.02-.063-.067-.07-.229-.038-.457-.079-.685-.12m3.876-1.462a1.443,1.443,0,1,0,1.443,1.443,1.443,1.443,0,0,0-1.443-1.443h0" fill="#ef5713"/>
          </g>
        </g>
      </g>
    </g>
  </g>
</svg>
