<svg xmlns="http://www.w3.org/2000/svg" xmlns:xlink="http://www.w3.org/1999/xlink" width="30" height="30" viewBox="0 0 30 30">
  <defs>
    <clipPath id="clip-path">
      <rect id="Rectangle_1127" data-name="Rectangle 1127" width="25.519" height="20.457" transform="translate(0 0.001)" fill="none"/>
    </clipPath>
  </defs>
  <g id="Group_13627" data-name="Group 13627" transform="translate(22644 9783)">
    <g id="Group_13626" data-name="Group 13626" transform="translate(-22642 -9778.001)">
      <g id="Group_13625" data-name="Group 13625" clip-path="url(#clip-path)">
        <path id="Path_5393" data-name="Path 5393" d="M24.927,6.218a7.321,7.321,0,0,0-.79-2.02,7.046,7.046,0,0,0-1.67-2.02,7.492,7.492,0,0,0-9.69,0,6.016,6.016,0,0,0-.46.42,7.147,7.147,0,0,0-.79.94,7.425,7.425,0,0,0-.92,1.71,6.3,6.3,0,0,0-.34,1.22.527.527,0,0,0-.03.12,7.174,7.174,0,0,0-.12,1.31,1.829,1.829,0,0,0,.02.33,6.791,6.791,0,0,0,.27,1.74,7.489,7.489,0,0,0,1.91,3.24,6.958,6.958,0,0,0,1.5,1.15c.02.01.03.02.05.03a6.587,6.587,0,0,0,1.62.69,1.812,1.812,0,0,0,.31.09,7.041,7.041,0,0,0,1.82.23,1.426,1.426,0,0,0,.36-.02,5.929,5.929,0,0,0,1.34-.18,7.415,7.415,0,0,0,1.07-.34,7.482,7.482,0,0,0,4.54-8.64m-2.44,6.54a6.36,6.36,0,0,1-1.59,1.19,6.554,6.554,0,0,1-1.58.61,5.425,5.425,0,0,1-1.34.2,1.426,1.426,0,0,1-.36.02,6.907,6.907,0,0,1-1.97-.29,6.811,6.811,0,0,1-1.67-.76,7.124,7.124,0,0,1-1.22-.97c-.06-.06-.12-.13-.17-.19a6.043,6.043,0,0,1-.88-1.18,6.558,6.558,0,0,1-.62-1.38,6.814,6.814,0,0,1-.33-1.79c-.01-.11-.01-.21-.01-.32a7.183,7.183,0,0,1,.13-1.31c.01-.04.01-.07.02-.11a6.029,6.029,0,0,1,.38-1.23,7.273,7.273,0,0,1,1.03-1.71c.14-.17.29-.34.45-.5a7.17,7.17,0,0,1,1.05-.86,6.874,6.874,0,0,1,9.53,1.9,6.737,6.737,0,0,1,.8,1.64A6.236,6.236,0,0,1,24.5,7.9a6.831,6.831,0,0,1-2.01,4.86" fill="#ef5713"/>
        <path id="Path_5394" data-name="Path 5394" d="M24.927,6.218a7.321,7.321,0,0,0-.79-2.02,7.046,7.046,0,0,0-1.67-2.02,7.492,7.492,0,0,0-9.69,0,6.016,6.016,0,0,0-.46.42,7.147,7.147,0,0,0-.79.94,7.425,7.425,0,0,0-.92,1.71,6.3,6.3,0,0,0-.34,1.22.527.527,0,0,0-.03.12,7.174,7.174,0,0,0-.12,1.31,1.829,1.829,0,0,0,.02.33,6.791,6.791,0,0,0,.27,1.74,7.489,7.489,0,0,0,1.91,3.24,6.958,6.958,0,0,0,1.5,1.15c.02.01.03.02.05.03a6.587,6.587,0,0,0,1.62.69,1.812,1.812,0,0,0,.31.09,7.041,7.041,0,0,0,1.82.23,1.426,1.426,0,0,0,.36-.02,5.929,5.929,0,0,0,1.34-.18,7.415,7.415,0,0,0,1.07-.34A7.482,7.482,0,0,0,24.927,6.218Zm-2.44,6.54a6.36,6.36,0,0,1-1.59,1.19,6.554,6.554,0,0,1-1.58.61,5.425,5.425,0,0,1-1.34.2,1.426,1.426,0,0,1-.36.02,6.907,6.907,0,0,1-1.97-.29,6.811,6.811,0,0,1-1.67-.76,7.124,7.124,0,0,1-1.22-.97c-.06-.06-.12-.13-.17-.19a6.043,6.043,0,0,1-.88-1.18,6.558,6.558,0,0,1-.62-1.38,6.814,6.814,0,0,1-.33-1.79c-.01-.11-.01-.21-.01-.32a7.183,7.183,0,0,1,.13-1.31c.01-.04.01-.07.02-.11a6.029,6.029,0,0,1,.38-1.23,7.273,7.273,0,0,1,1.03-1.71c.14-.17.29-.34.45-.5a7.17,7.17,0,0,1,1.05-.86,6.874,6.874,0,0,1,9.53,1.9,6.737,6.737,0,0,1,.8,1.64A6.236,6.236,0,0,1,24.5,7.9,6.831,6.831,0,0,1,22.487,12.758Z" fill="none" stroke="#ef5713" stroke-width="0.8"/>
        <path id="Path_5395" data-name="Path 5395" d="M13.752,7.924V7.879a.143.143,0,0,0,.014-.034c.072-.4.144-.809.212-1.214.009-.056.027-.068.083-.057.2.039.407.071.61.11.052.01.071,0,.1-.051.1-.192.214-.381.329-.568.027-.044.032-.068,0-.108-.137-.158-.269-.321-.406-.48-.042-.035-.042-.054,0-.087q.484-.4.96-.808c.042-.034.063-.036.1.008.132.163.269.321.4.483a.071.071,0,0,0,.1.018c.209-.081.42-.158.631-.229a.068.068,0,0,0,.054-.071V4.169c0-.053.008-.075.069-.075h1.246c.052,0,.069.014.068.067v.621a.077.077,0,0,0,.064.088h0c.209.071.417.146.623.227a.071.071,0,0,0,.1-.019v0c.133-.162.269-.321.4-.483.029-.036.048-.045.089-.011q.481.41.968.812c.042.035.032.054,0,.089-.135.157-.266.317-.4.474a.079.079,0,0,0-.011.11h0c.115.186.224.376.329.568a.077.077,0,0,0,.1.05h0c.206-.039.412-.071.618-.111.052-.01.065,0,.073.052.071.415.143.83.219,1.244.009.051-.008.061-.049.068-.206.035-.412.075-.619.106-.059.009-.07.034-.078.086-.034.216-.07.432-.113.647a.072.072,0,0,0,.04.094c.182.1.362.21.545.312.045.025.052.044.025.09q-.317.542-.628,1.087c-.024.042-.041.05-.085.024-.18-.107-.363-.209-.542-.316a.076.076,0,0,0-.106.008v0q-.249.221-.509.427a.071.071,0,0,0-.032.1v0c.075.2.145.4.22.6.016.042.011.059-.035.075q-.6.215-1.193.435c-.045.017-.059,0-.074-.037-.069-.2-.142-.391-.211-.586-.02-.057-.041-.071-.106-.069-.216.008-.433.005-.65,0-.05,0-.071.007-.087.053-.07.2-.145.4-.215.6-.016.046-.035.054-.08.037-.392-.145-.785-.289-1.179-.429-.057-.02-.057-.042-.039-.091.074-.2.143-.393.217-.588.017-.044.006-.063-.03-.092q-.261-.211-.515-.432a.067.067,0,0,0-.094-.02l-.006,0c-.18.107-.363.208-.542.316-.048.029-.068.026-.1-.025q-.3-.547-.615-1.085c-.031-.052-.017-.069.029-.1.183-.1.363-.209.544-.313.03-.017.049-.03.04-.075-.044-.225-.083-.45-.12-.676-.007-.043-.02-.063-.067-.07-.229-.038-.457-.079-.685-.12ZM17.627,6.46A1.443,1.443,0,1,0,19.07,7.9,1.443,1.443,0,0,0,17.627,6.46" fill="#ef5713"/>
        <path id="Path_5396" data-name="Path 5396" d="M12.757,12.758c-.059-.06-.12-.13-.17-.19a6.043,6.043,0,0,1-.88-1.18,6.661,6.661,0,0,1-.62-1.38,3.787,3.787,0,0,0-.59-.05.271.271,0,0,0-.089.01,3.341,3.341,0,0,0-.831.13,1.746,1.746,0,0,1-2.439,2.44,3.49,3.49,0,0,0,6.73,1.85c.009-.01.009-.01.009-.02a2.871,2.871,0,0,0,.1-.64,7.163,7.163,0,0,1-1.22-.97m0,0c-.059-.06-.12-.13-.17-.19a6.043,6.043,0,0,1-.88-1.18,6.661,6.661,0,0,1-.62-1.38,3.787,3.787,0,0,0-.59-.05.271.271,0,0,0-.089.01,3.341,3.341,0,0,0-.831.13,1.746,1.746,0,0,1-2.439,2.44,3.49,3.49,0,0,0,6.73,1.85c.009-.01.009-.01.009-.02a2.871,2.871,0,0,0,.1-.64,7.163,7.163,0,0,1-1.22-.97m6.56,1.8a5.418,5.418,0,0,1-1.34.2,1.418,1.418,0,0,1-.359.02,6.907,6.907,0,0,1-1.97-.29,4.076,4.076,0,0,1-.16.59,5.247,5.247,0,1,1-5.351-6.85,2.174,2.174,0,0,1,.36-.02,2.26,2.26,0,0,1,.26.01c-.01-.11-.01-.21-.01-.32a7.183,7.183,0,0,1,.13-1.31c.01-.04.01-.07.021-.11a2.7,2.7,0,0,0-.4-.02,1.77,1.77,0,0,0-.23.01A11.724,11.724,0,0,0,.128,12.928a1.165,1.165,0,0,0,0,1.06A11.679,11.679,0,0,0,10.5,20.458a11.658,11.658,0,0,0,9.89-5.6,9.488,9.488,0,0,0,.491-.87c.009-.01.009-.02.019-.04a6.538,6.538,0,0,1-1.58.61m-8.909-4.59a3.341,3.341,0,0,0-.831.13,1.746,1.746,0,0,1-2.439,2.44,3.49,3.49,0,0,0,6.73,1.85c.009-.01.009-.01.009-.02a2.871,2.871,0,0,0,.1-.64,7.163,7.163,0,0,1-1.22-.97c-.059-.06-.12-.13-.17-.19a6.043,6.043,0,0,1-.88-1.18,6.661,6.661,0,0,1-.62-1.38,3.787,3.787,0,0,0-.59-.05.271.271,0,0,0-.089.01" fill="#ef5713"/>
      </g>
    </g>
    <rect id="Rectangle_1126" data-name="Rectangle 1126" width="30" height="30" transform="translate(-22644 -9783)" fill="#fff" opacity="0"/>
  </g>
</svg>
