<svg xmlns="http://www.w3.org/2000/svg" xmlns:xlink="http://www.w3.org/1999/xlink" width="30" height="30" viewBox="0 0 30 30">
  <defs>
    <clipPath id="clip-path">
      <rect id="Rectangle_1103" data-name="Rectangle 1103" width="29" height="29" fill="#ef5713"/>
    </clipPath>
  </defs>
  <g id="Group_13571" data-name="Group 13571" transform="translate(23632 10055)">
    <rect id="Rectangle_1104" data-name="Rectangle 1104" width="30" height="30" transform="translate(-23632 -10055)" fill="#fff" opacity="0"/>
    <g id="Group_13570" data-name="Group 13570" transform="translate(-23631 -10054)">
      <g id="Group_13569" data-name="Group 13569" clip-path="url(#clip-path)">
        <path id="Path_5328" data-name="Path 5328" d="M13.214,0h2.428c.1.021.2.045.3.062a2.462,2.462,0,0,1,1.933,1.467,6.434,6.434,0,0,1,.362,1.561c.027.145.067.288.1.432l1.083.435c.131-.084.259-.16.381-.244.317-.219.625-.453.95-.659a2.441,2.441,0,0,1,2.821.156c.2.169.4.345.581.533.533.543,1.1,1.063,1.578,1.648a2.233,2.233,0,0,1,.391,2.23,3.893,3.893,0,0,1-.578,1.027c-.2.281-.4.566-.6.851l.44,1.042c.376.067.726.132,1.078.192a2.958,2.958,0,0,1,1.25.41,2.391,2.391,0,0,1,1.143,1.909,1.071,1.071,0,0,0,.054.216v2.372c-.028.165-.047.333-.086.5A2.466,2.466,0,0,1,27,18.062c-.306.087-.627.122-.941.181l-.694.132c-.108.256-.192.5-.307.72a.5.5,0,0,0,.061.6A12.672,12.672,0,0,1,25.89,20.8a2.358,2.358,0,0,1-.2,2.767,11.216,11.216,0,0,1-.886.946c-.407.4-.816.807-1.246,1.185a2.263,2.263,0,0,1-1.6.527,2.581,2.581,0,0,1-1.534-.575c-.26-.2-.53-.39-.8-.572A.408.408,0,0,0,19.34,25a3.73,3.73,0,0,0-.964.4c-.028.125-.058.242-.08.361-.071.389-.129.78-.211,1.166a2.49,2.49,0,0,1-2.226,1.936,1.108,1.108,0,0,0-.216.054H13.214c-.1-.021-.2-.045-.3-.062a2.433,2.433,0,0,1-1.929-1.471,4.527,4.527,0,0,1-.25-.894c-.079-.366-.132-.737-.192-1.077A3.13,3.13,0,0,0,9.5,25c-.38.268-.763.558-1.167.815a2.778,2.778,0,0,1-.76.362,2.46,2.46,0,0,1-2.467-.668c-.627-.61-1.242-1.233-1.826-1.883a2.263,2.263,0,0,1-.537-1.893,2.864,2.864,0,0,1,.6-1.324c.224-.3.436-.61.666-.933L3.57,18.442c-.157-.035-.285-.066-.413-.09-.389-.071-.78-.128-1.166-.211A2.49,2.49,0,0,1,.054,15.915,1.109,1.109,0,0,0,0,15.7V13.327c.028-.166.047-.333.086-.5a2.451,2.451,0,0,1,1.824-1.922c.415-.115.85-.161,1.275-.238.139-.025.3-.033.365-.178.141-.305.262-.619.39-.927-.09-.136-.16-.246-.235-.354-.219-.317-.443-.631-.661-.95a2.5,2.5,0,0,1,.119-2.879c.1-.121.2-.249.315-.361.6-.593,1.177-1.223,1.828-1.759a2.281,2.281,0,0,1,2.59-.3,6.9,6.9,0,0,1,.808.515c.248.166.49.342.742.519l1.017-.427c.035-.134.067-.233.085-.334.065-.361.13-.722.187-1.084A2.507,2.507,0,0,1,13,.054,1.129,1.129,0,0,0,13.214,0M4.349,21.994a1.019,1.019,0,0,0,.274.725c.557.561,1.113,1.123,1.678,1.676a.82.82,0,0,0,.944.154,2.648,2.648,0,0,0,.482-.29c.4-.278.8-.563,1.2-.845a.985.985,0,0,1,1.065-.071c.46.214.93.41,1.407.582a.988.988,0,0,1,.692.78c.013.065.03.128.041.193.079.473.154.947.237,1.42a1.621,1.621,0,0,0,.113.406.755.755,0,0,0,.72.5q1.256,0,2.513,0a.722.722,0,0,0,.442-.158,1.045,1.045,0,0,0,.388-.726c.09-.538.179-1.077.275-1.614a.978.978,0,0,1,.706-.8,8.218,8.218,0,0,0,1.227-.5,1.27,1.27,0,0,1,1.583.147,11.6,11.6,0,0,0,1.2.849.861.861,0,0,0,1.18-.121q.775-.762,1.537-1.537a.911.911,0,0,0,.116-1.318c-.289-.429-.577-.861-.9-1.268a1.111,1.111,0,0,1-.119-1.264c.209-.452.405-.912.571-1.381a1.028,1.028,0,0,1,.871-.741c.27-.042.539-.085.808-.132.343-.06.688-.11,1.025-.193a.789.789,0,0,0,.594-.766c0-.838,0-1.675,0-2.513a.719.719,0,0,0-.478-.7,1.763,1.763,0,0,0-.378-.111c-.463-.083-.928-.156-1.392-.233l-.056-.007a1.092,1.092,0,0,1-1-.783c-.189-.521-.417-1.028-.628-1.541a.894.894,0,0,1,.059-.864c.091-.143.189-.281.286-.42.271-.385.552-.762.812-1.154a.824.824,0,0,0-.075-1.09c-.567-.591-1.148-1.168-1.736-1.738a.8.8,0,0,0-.943-.139,1.938,1.938,0,0,0-.314.188c-.4.282-.812.549-1.191.857a1.113,1.113,0,0,1-1.288.106c-.443-.2-.894-.4-1.354-.56a1.142,1.142,0,0,1-.819-.977c-.071-.474-.152-.948-.235-1.42a1.661,1.661,0,0,0-.112-.406.752.752,0,0,0-.717-.5q-1.256,0-2.513,0a.757.757,0,0,0-.465.173,1.05,1.05,0,0,0-.365.738q-.142.82-.286,1.64a.9.9,0,0,1-.548.7c-.577.251-1.159.492-1.742.732a.906.906,0,0,1-.933-.118c-.3-.217-.593-.432-.895-.641a8.012,8.012,0,0,0-.732-.477.786.786,0,0,0-.94.135c-.565.553-1.127,1.11-1.676,1.678a.867.867,0,0,0-.133,1.136,3.517,3.517,0,0,0,.216.33c.26.369.516.742.786,1.1a1.11,1.11,0,0,1,.1,1.243,14.081,14.081,0,0,0-.544,1.33,1.044,1.044,0,0,1-.9.778c-.047.006-.093.013-.139.022-.537.1-1.077.18-1.61.3a.8.8,0,0,0-.64.816q-.005,1.2,0,2.4a.813.813,0,0,0,.606.818,5.74,5.74,0,0,0,.634.131c.453.083.909.155,1.361.244a.865.865,0,0,1,.658.558c.233.565.478,1.124.718,1.686a.926.926,0,0,1-.092.939c-.187.271-.388.532-.577.8s-.368.523-.536.794a1.427,1.427,0,0,0-.117.311" fill="#ef5713"/>
        <path id="Path_5329" data-name="Path 5329" d="M162.608,157.021a5.59,5.59,0,1,1-5.595,5.556,5.617,5.617,0,0,1,5.595-5.556m3.949,5.577a3.953,3.953,0,1,0-3.935,3.963,3.951,3.951,0,0,0,3.935-3.963" transform="translate(-148.147 -148.154)" fill="#ef5713"/>
      </g>
    </g>
  </g>
</svg>
