<svg xmlns="http://www.w3.org/2000/svg" width="55" height="55" viewBox="0 0 55 55">
  <g id="Group_13265" data-name="Group 13265" transform="translate(-45.074 -429.797)">
    <rect id="Rectangle_996" data-name="Rectangle 996" width="55" height="55" transform="translate(45.074 429.797)" fill="#fff" opacity="0"/>
    <g id="download_copy" data-name="download copy" transform="translate(50.579 435.283)">
      <g id="Group_13226" data-name="Group 13226">
        <g id="Group_13225" data-name="Group 13225">
          <path id="Path_5206" data-name="Path 5206" d="M41.609,2.4A8.141,8.141,0,0,0,35.815,0H8.195A8.2,8.2,0,0,0,0,8.195V35.815a8.2,8.2,0,0,0,8.195,8.194h27.62a8.2,8.2,0,0,0,8.194-8.194V8.195A8.141,8.141,0,0,0,41.609,2.4Zm-.179,33.415a5.622,5.622,0,0,1-5.616,5.616H8.195a5.622,5.622,0,0,1-5.616-5.616V8.194A5.622,5.622,0,0,1,8.195,2.579h27.62a5.615,5.615,0,0,1,5.616,5.616Z" fill="#ef5713"/>
        </g>
      </g>
      <g id="Group_13228" data-name="Group 13228" transform="translate(13.879 8.286)">
        <g id="Group_13227" data-name="Group 13227" transform="translate(0 0)">
          <path id="Path_5207" data-name="Path 5207" d="M177.344,105.437a1.289,1.289,0,0,1-1.823,0l-4.635-4.635v13.754a1.289,1.289,0,1,1-2.579,0V100.8l-4.635,4.635a1.289,1.289,0,0,1-1.823-1.823l6.836-6.836a1.289,1.289,0,0,1,1.823,0l6.836,6.836A1.289,1.289,0,0,1,177.344,105.437Z" transform="translate(-161.472 -96.4)" fill="#ef5713"/>
        </g>
      </g>
      <g id="Group_13230" data-name="Group 13230" transform="translate(8.286 33.145)">
        <g id="Group_13229" data-name="Group 13229">
          <path id="Path_5208" data-name="Path 5208" d="M122.55,385.6H97.691a1.289,1.289,0,1,0,0,2.579H122.55a1.289,1.289,0,1,0,0-2.579Z" transform="translate(-96.402 -385.601)" fill="#ef5713"/>
        </g>
      </g>
    </g>
  </g>
</svg>
