<svg xmlns="http://www.w3.org/2000/svg" xmlns:xlink="http://www.w3.org/1999/xlink" width="30" height="30" viewBox="0 0 30 30">
  <defs>
    <clipPath id="clip-path">
      <rect id="Rectangle_1108" data-name="Rectangle 1108" width="26.358" height="17" fill="#ef5713"/>
    </clipPath>
  </defs>
  <g id="Group_13582" data-name="Group 13582" transform="translate(22668 9832)">
    <rect id="Rectangle_1104" data-name="Rectangle 1104" width="30" height="30" transform="translate(-22668 -9832)" fill="#fff" opacity="0"/>
    <g id="Group_13581" data-name="Group 13581" transform="translate(-22666 -9825)">
      <g id="Group_13580" data-name="Group 13580" clip-path="url(#clip-path)">
        <path id="Path_5334" data-name="Path 5334" d="M26.358,16.427A.992.992,0,0,1,25.321,17Q13.149,16.986.977,16.993c-.707,0-.977-.27-.977-.979q0-2.149,0-4.3a.8.8,0,0,1,.873-.9,2.316,2.316,0,0,0,0-4.627A.8.8,0,0,1,0,5.281Q0,3.093,0,.906a.794.794,0,0,1,.9-.9Q13.175,0,25.45,0a.929.929,0,0,1,.908.571ZM24.8,15.438V1.565H7.783c0,.081,0,.148,0,.215,0,.172,0,.343,0,.515a.769.769,0,0,1-.765.8.783.783,0,0,1-.776-.8c-.008-.244,0-.489,0-.73H1.561V4.712a3.89,3.89,0,0,1,3.063,3.52,3.71,3.71,0,0,1-.538,2.239,3.878,3.878,0,0,1-2.524,1.815v3.143H6.178c0-.252,0-.483,0-.715a.772.772,0,1,1,1.543,0c0,.238,0,.475,0,.723Z" transform="translate(0 0)" fill="#ef5713"/>
        <path id="Path_5335" data-name="Path 5335" d="M279.283,60.795a2.671,2.671,0,0,1-.2.464q-3.051,4.591-6.114,9.174a.772.772,0,1,1-1.285-.851q3.061-4.6,6.13-9.195a.75.75,0,0,1,.89-.336.843.843,0,0,1,.576.744" transform="translate(-257.527 -56.916)" fill="#ef5713"/>
        <path id="Path_5336" data-name="Path 5336" d="M246.18,62.306A2.316,2.316,0,1,1,243.871,60a2.322,2.322,0,0,1,2.31,2.309m-2.312.778a.771.771,0,1,0-.775-.762.781.781,0,0,0,.775.762" transform="translate(-229.09 -56.902)" fill="#ef5713"/>
        <path id="Path_5337" data-name="Path 5337" d="M361.315,182.066a2.316,2.316,0,1,1,2.289,2.33,2.323,2.323,0,0,1-2.289-2.33m3.087.018a.771.771,0,1,0-.769.768.78.78,0,0,0,.769-.768" transform="translate(-342.678 -170.492)" fill="#ef5713"/>
        <path id="Path_5338" data-name="Path 5338" d="M119.748,91.482c0-.248,0-.5,0-.744a.771.771,0,1,1,1.541-.016q.011.757,0,1.514a.771.771,0,1,1-1.541-.009c0-.248,0-.5,0-.744" transform="translate(-113.57 -85.298)" fill="#ef5713"/>
        <path id="Path_5339" data-name="Path 5339" d="M119.737,181.3c0-.257-.006-.513,0-.77a.77.77,0,0,1,1.54-.008q.015.782,0,1.565a.77.77,0,0,1-1.539-.018c-.007-.257,0-.513,0-.77" transform="translate(-113.559 -170.491)" fill="#ef5713"/>
      </g>
    </g>
  </g>
</svg>
