<svg xmlns="http://www.w3.org/2000/svg" xmlns:xlink="http://www.w3.org/1999/xlink" width="30" height="30" viewBox="0 0 30 30">
  <defs>
    <clipPath id="clip-path">
      <rect id="Rectangle_1108" data-name="Rectangle 1108" width="26.358" height="17" fill="#ef5713"/>
    </clipPath>
  </defs>
  <g id="Group_13621" data-name="Group 13621" transform="translate(22668 9832)">
    <rect id="Rectangle_1104" data-name="Rectangle 1104" width="30" height="30" transform="translate(-22668 -9832)" fill="#fff" opacity="0"/>
    <g id="Group_13581" data-name="Group 13581" transform="translate(-22666 -9825)">
      <g id="Group_13580" data-name="Group 13580" clip-path="url(#clip-path)">
        <path id="Path_5334" data-name="Path 5334" d="M26.358,16.427A.992.992,0,0,1,25.321,17Q13.149,16.986.977,16.993c-.707,0-.977-.27-.977-.979q0-2.149,0-4.3a.8.8,0,0,1,.873-.9,2.316,2.316,0,0,0,0-4.627A.8.8,0,0,1,0,5.281Q0,3.093,0,.906a.794.794,0,0,1,.9-.9Q13.175,0,25.45,0a.929.929,0,0,1,.908.571ZM24.8,15.438V1.565H7.783c0,.081,0,.148,0,.215,0,.172,0,.343,0,.515a.769.769,0,0,1-.765.8.783.783,0,0,1-.776-.8c-.008-.244,0-.489,0-.73H1.561V4.712a3.89,3.89,0,0,1,3.063,3.52,3.71,3.71,0,0,1-.538,2.239,3.878,3.878,0,0,1-2.524,1.815v3.143H6.178c0-.252,0-.483,0-.715a.772.772,0,1,1,1.543,0c0,.238,0,.475,0,.723Z" transform="translate(0 0)" fill="#ef5713"/>
        <path id="Path_5338" data-name="Path 5338" d="M119.748,91.482c0-.248,0-.5,0-.744a.771.771,0,1,1,1.541-.016q.011.757,0,1.514a.771.771,0,1,1-1.541-.009c0-.248,0-.5,0-.744" transform="translate(-113.57 -85.298)" fill="#ef5713"/>
        <path id="Path_5339" data-name="Path 5339" d="M119.737,181.3c0-.257-.006-.513,0-.77a.77.77,0,0,1,1.54-.008q.015.782,0,1.565a.77.77,0,0,1-1.539-.018c-.007-.257,0-.513,0-.77" transform="translate(-113.559 -170.491)" fill="#ef5713"/>
        <path id="Path_5390" data-name="Path 5390" d="M18.63,8.286V8.237a.157.157,0,0,0,.015-.037c.079-.438.158-.885.232-1.329.01-.061.03-.074.091-.062.219.043.445.078.668.12.057.011.078,0,.109-.056.115-.21.234-.417.36-.622.03-.048.035-.074,0-.118-.15-.173-.294-.351-.444-.525-.046-.038-.046-.059,0-.1q.53-.438,1.051-.884c.046-.037.069-.039.109.009.144.178.294.351.438.529a.079.079,0,0,0,.108.02h0q.343-.133.691-.251a.075.075,0,0,0,.059-.078v-.68c0-.058.009-.082.076-.082q.681,0,1.364,0c.057,0,.076.015.074.073v.68a.084.084,0,0,0,.071.1c.229.078.456.16.682.248a.078.078,0,0,0,.107-.023l0,0c.146-.177.294-.351.438-.529.032-.039.053-.049.1-.012q.527.448,1.059.889c.046.038.035.059,0,.1-.148.172-.291.347-.438.519a.086.086,0,0,0-.011.121l0,0c.126.2.245.412.36.622a.085.085,0,0,0,.109.054c.225-.043.451-.078.676-.121.057-.011.071.005.08.057.078.454.157.908.24,1.362.01.056-.009.067-.054.074-.225.038-.451.082-.677.116-.065.01-.077.037-.085.094-.037.236-.077.473-.124.708a.079.079,0,0,0,.044.1c.2.109.4.23.6.341.049.027.057.048.027.1q-.346.593-.687,1.19c-.026.046-.045.055-.093.026-.2-.117-.4-.229-.593-.346a.082.082,0,0,0-.117.011l0,0q-.273.241-.557.467a.078.078,0,0,0-.035.1l0,.005c.082.219.159.438.241.657.018.046.012.065-.038.082q-.657.235-1.306.476c-.049.019-.065,0-.081-.04-.076-.217-.155-.428-.231-.641-.022-.062-.045-.078-.116-.076-.236.009-.474.005-.711,0-.055,0-.078.008-.1.058-.077.219-.159.438-.235.657-.018.05-.038.059-.088.04-.429-.159-.859-.316-1.29-.47-.062-.022-.062-.046-.043-.1.081-.219.157-.43.238-.644.019-.048.007-.069-.033-.1q-.286-.231-.564-.473a.074.074,0,0,0-.1-.018l-.005,0c-.2.117-.4.228-.593.346-.053.032-.074.028-.109-.027q-.327-.6-.673-1.188c-.034-.057-.019-.076.032-.1.2-.109.4-.229.6-.343.033-.019.054-.033.044-.082-.048-.246-.091-.493-.131-.74-.008-.047-.022-.069-.073-.077-.251-.042-.5-.086-.75-.131m4.242-1.6a1.579,1.579,0,1,0,1.579,1.579,1.579,1.579,0,0,0-1.579-1.579h0" transform="translate(-7 0.235)" fill="#ef5713"/>
      </g>
    </g>
  </g>
</svg>
